<svg width="304" height="304" viewBox="0 0 304 304" fill="none" xmlns="http://www.w3.org/2000/svg">
<g filter="url(#filter0_b_450_983)">
<rect width="304" height="304" rx="152" fill="#6E58F2"/>
<rect x="4" y="4" width="296" height="296" rx="148" stroke="#9FA5AC" stroke-opacity="0.6" stroke-width="8"/>
<path d="M218.536 89.2446C206.299 83.6295 193.176 79.4926 179.455 77.1232C179.205 77.0775 178.956 77.1918 178.827 77.4203C177.139 80.4221 175.27 84.338 173.961 87.416C159.203 85.2066 144.521 85.2066 130.067 87.416C128.757 84.2696 126.82 80.4221 125.125 77.4203C124.996 77.1994 124.746 77.0851 124.496 77.1232C110.783 79.485 97.6605 83.622 85.4155 89.2446C85.3095 89.2903 85.2186 89.3665 85.1583 89.4655C60.2671 126.652 53.4484 162.925 56.7934 198.748C56.8086 198.924 56.907 199.091 57.0432 199.198C73.4657 211.258 89.3737 218.58 104.986 223.433C105.236 223.509 105.501 223.418 105.66 223.212C109.353 218.169 112.645 212.851 115.468 207.258C115.634 206.931 115.475 206.542 115.135 206.413C109.913 204.432 104.941 202.017 100.158 199.274C99.7795 199.053 99.7492 198.512 100.097 198.253C101.104 197.499 102.111 196.714 103.072 195.922C103.246 195.777 103.488 195.746 103.692 195.838C135.114 210.184 169.132 210.184 200.184 195.838C200.388 195.739 200.63 195.769 200.812 195.914C201.773 196.706 202.78 197.499 203.794 198.253C204.142 198.512 204.119 199.053 203.741 199.274C198.958 202.07 193.986 204.432 188.756 206.405C188.416 206.535 188.264 206.931 188.431 207.258C191.314 212.843 194.606 218.161 198.231 223.204C198.383 223.418 198.655 223.509 198.905 223.433C214.593 218.58 230.501 211.258 246.923 199.198C247.067 199.091 247.158 198.931 247.173 198.756C251.177 157.341 240.468 121.365 218.786 89.4731C218.733 89.3665 218.642 89.2903 218.536 89.2446ZM120.16 176.936C110.7 176.936 102.905 168.251 102.905 157.584C102.905 146.918 110.549 138.233 120.16 138.233C129.847 138.233 137.566 146.994 137.415 157.584C137.415 168.251 129.771 176.936 120.16 176.936ZM183.958 176.936C174.498 176.936 166.703 168.251 166.703 157.584C166.703 146.918 174.347 138.233 183.958 138.233C193.645 138.233 201.364 146.994 201.213 157.584C201.213 168.251 193.645 176.936 183.958 176.936Z" fill="white"/>
</g>
<defs>
<filter id="filter0_b_450_983" x="-28" y="-28" width="360" height="360" filterUnits="userSpaceOnUse" color-interpolation-filters="sRGB">
<feFlood flood-opacity="0" result="BackgroundImageFix"/>
<feGaussianBlur in="BackgroundImageFix" stdDeviation="14"/>
<feComposite in2="SourceAlpha" operator="in" result="effect1_backgroundBlur_450_983"/>
<feBlend mode="normal" in="SourceGraphic" in2="effect1_backgroundBlur_450_983" result="shape"/>
</filter>
</defs>
</svg>
