<svg width="56" height="56" viewBox="0 0 56 56" fill="none" xmlns="http://www.w3.org/2000/svg">
<g id="icon_discord" clip-path="url(#clip0_915_1299)">
<path id="Subtract" fill-rule="evenodd" clip-rule="evenodd" d="M28 56C43.464 56 56 43.464 56 28C56 12.536 43.464 0 28 0C12.536 0 0 12.536 0 28C0 43.464 12.536 56 28 56ZM32.8619 15.0017C35.2916 15.4065 37.6154 16.1132 39.7824 17.0724C39.8012 17.0802 39.8173 17.0932 39.8266 17.1114C43.6662 22.5594 45.5625 28.705 44.8536 35.7799C44.8509 35.8099 44.8348 35.8372 44.8094 35.8554C41.9012 37.9157 39.0842 39.1664 36.3061 39.9954C36.2618 40.0085 36.2136 39.9929 36.1868 39.9564C35.5448 39.0948 34.9619 38.1864 34.4513 37.2324C34.4218 37.1764 34.4486 37.1088 34.5089 37.0866C35.4349 36.7495 36.3154 36.3461 37.1624 35.8685C37.2294 35.8307 37.2334 35.7383 37.1718 35.694C36.9922 35.5652 36.814 35.4298 36.6438 35.2945C36.6116 35.2698 36.5687 35.2645 36.5325 35.2815C31.0339 37.7322 25.0098 37.7322 19.4455 35.2815C19.4093 35.2658 19.3664 35.2711 19.3356 35.2958C19.1654 35.4311 18.9871 35.5652 18.8089 35.694C18.7473 35.7383 18.7526 35.8307 18.8196 35.8685C19.6666 36.337 20.5471 36.7495 21.4718 37.0879C21.5321 37.1101 21.5603 37.1764 21.5308 37.2324C21.0309 38.1877 20.4479 39.0962 19.7939 39.9577C19.7658 39.9929 19.7189 40.0085 19.6746 39.9954C16.9099 39.1664 14.0929 37.9157 11.1847 35.8554C11.1606 35.8372 11.1432 35.8086 11.1405 35.7787C10.5482 29.6591 11.7556 23.4627 16.1635 17.1101C16.1741 17.0932 16.1902 17.0802 16.209 17.0724C18.3774 16.1119 20.7012 15.4052 23.1296 15.0017C23.1738 14.9952 23.218 15.0147 23.2408 15.0525C23.541 15.5652 23.8841 16.2225 24.116 16.76C26.6757 16.3826 29.2756 16.3826 31.8889 16.76C32.1207 16.2342 32.4517 15.5652 32.7506 15.0525C32.7734 15.0134 32.8176 14.9939 32.8619 15.0017ZM19.3061 28.7467C19.3061 30.5688 20.6865 32.0525 22.3617 32.0525C24.0637 32.0525 25.4172 30.5688 25.4172 28.7467C25.4441 26.9376 24.0771 25.4409 22.3617 25.4409C20.6597 25.4409 19.3061 26.9246 19.3061 28.7467ZM30.6037 28.7467C30.6037 30.5688 31.984 32.0525 33.6592 32.0525C35.3746 32.0525 36.7148 30.5688 36.7148 28.7467C36.7416 26.9376 35.3746 25.4409 33.6592 25.4409C31.9572 25.4409 30.6037 26.9246 30.6037 28.7467Z" fill="white"/>
</g>
<defs>
<clipPath id="clip0_915_1299">
<rect width="56" height="56" fill="white"/>
</clipPath>
</defs>
</svg>
