<svg width="76" height="76" viewBox="0 0 76 76" fill="none" xmlns="http://www.w3.org/2000/svg">
<g filter="url(#filter0_b_445_779)">
<rect width="76" height="76" rx="22" fill="#6E58F2"/>
<rect x="1" y="1" width="74" height="74" rx="21" stroke="url(#paint0_linear_445_779)" stroke-width="2"/>
<g clip-path="url(#clip0_445_779)">
<path d="M54.634 22.3111C51.5747 20.9074 48.294 19.8732 44.8638 19.2808C44.8013 19.2694 44.7389 19.2979 44.7067 19.3551C44.2848 20.1055 43.8175 21.0845 43.4902 21.854C39.8008 21.3017 36.1304 21.3017 32.5166 21.854C32.1893 21.0674 31.705 20.1055 31.2811 19.3551C31.249 19.2998 31.1866 19.2713 31.1241 19.2808C27.6958 19.8713 24.4151 20.9055 21.3539 22.3111C21.3274 22.3226 21.3047 22.3416 21.2896 22.3664C15.0668 31.6631 13.3621 40.7313 14.1984 49.6871C14.2021 49.7309 14.2267 49.7728 14.2608 49.7995C18.3664 52.8145 22.3434 54.645 26.2466 55.8582C26.309 55.8773 26.3752 55.8544 26.415 55.803C27.3383 54.5421 28.1613 53.2127 28.867 51.8146C28.9086 51.7327 28.8688 51.6356 28.7837 51.6032C27.4783 51.108 26.2352 50.5042 25.0395 49.8185C24.9449 49.7633 24.9373 49.628 25.0243 49.5632C25.2759 49.3747 25.5276 49.1785 25.7679 48.9804C25.8114 48.9443 25.872 48.9366 25.9231 48.9595C33.7786 52.546 42.2831 52.546 50.0459 48.9595C50.097 48.9347 50.1576 48.9424 50.203 48.9785C50.4433 49.1766 50.6949 49.3747 50.9484 49.5632C51.0354 49.628 51.0298 49.7633 50.9352 49.8185C49.7394 50.5175 48.4964 51.108 47.189 51.6013C47.1039 51.6337 47.0661 51.7327 47.1077 51.8146C47.8285 53.2107 48.6515 54.5402 49.5578 55.8011C49.5957 55.8544 49.6637 55.8773 49.7262 55.8582C53.6483 54.645 57.6252 52.8145 61.7309 49.7995C61.7668 49.7728 61.7895 49.7328 61.7933 49.689C62.7942 39.3351 60.117 30.3413 54.6964 22.3683C54.6832 22.3416 54.6605 22.3226 54.634 22.3111ZM30.04 44.234C27.675 44.234 25.7263 42.0627 25.7263 39.3961C25.7263 36.7295 27.6372 34.5582 30.04 34.5582C32.4617 34.5582 34.3916 36.7486 34.3538 39.3961C34.3538 42.0627 32.4428 44.234 30.04 44.234ZM45.9895 44.234C43.6245 44.234 41.6758 42.0627 41.6758 39.3961C41.6758 36.7295 43.5867 34.5582 45.9895 34.5582C48.4113 34.5582 50.3411 36.7486 50.3033 39.3961C50.3033 42.0627 48.4113 44.234 45.9895 44.234Z" fill="white"/>
</g>
</g>
<defs>
<filter id="filter0_b_445_779" x="-7" y="-7" width="90" height="90" filterUnits="userSpaceOnUse" color-interpolation-filters="sRGB">
<feFlood flood-opacity="0" result="BackgroundImageFix"/>
<feGaussianBlur in="BackgroundImageFix" stdDeviation="3.5"/>
<feComposite in2="SourceAlpha" operator="in" result="effect1_backgroundBlur_445_779"/>
<feBlend mode="normal" in="SourceGraphic" in2="effect1_backgroundBlur_445_779" result="shape"/>
</filter>
<linearGradient id="paint0_linear_445_779" x1="38" y1="0" x2="38" y2="76" gradientUnits="userSpaceOnUse">
<stop stop-color="white"/>
<stop offset="1" stop-color="#A0A0A0"/>
</linearGradient>
<clipPath id="clip0_445_779">
<rect width="48" height="48" fill="white" transform="translate(14 14)"/>
</clipPath>
</defs>
</svg>
