<svg width="87" height="86" viewBox="0 0 87 86" fill="none" xmlns="http://www.w3.org/2000/svg">
<g filter="url(#filter0_b_2003_417)">
<rect x="0.75" width="85.5" height="85.5" rx="22.5" fill="#6E58F2" fill-opacity="0.9"/>
<rect x="1.75" y="1" width="83.5" height="83.5" rx="21.5" stroke="url(#paint0_linear_2003_417)" stroke-width="2"/>
<g filter="url(#filter1_d_2003_417)">
<path fill-rule="evenodd" clip-rule="evenodd" d="M70.4392 51.518C70.2787 53.5034 71.0102 55.3731 69.6939 56.7682C65.675 59.1508 60.9157 62.8712 56.2585 62.7813C51.8725 56.3076 53.7002 59.7648 57.7332 55.9009C51.739 56.9398 45.6456 59.606 39.1861 58.1774C35.7153 58.1168 32.5266 55.8051 29.2458 55.966C29.8534 57.616 33.9769 57.2566 33.0902 59.2706C31.9402 60.361 31.5388 63.3692 29.6195 62.9625C25.2314 61.0836 19.6204 59.4916 16.6904 55.7201C15.7594 45.8142 18.2701 35.9898 23.6074 27.5643C26.233 23.8086 31.0747 23.9687 35.0236 22.659C35.9791 22.341 36.3515 23.0512 36.6966 23.8124C37.6885 25.8384 37.3352 25.3505 39.3333 25.1154C42.4569 24.7477 45.5768 24.753 48.6821 25.2713C49.5792 25.5569 49.7815 24.9205 50.1121 24.2439C51.1853 21.9438 51.1095 22.4239 53.0308 22.8791C56.2204 24.0018 60.3214 24.2829 62.794 26.6676C67.5586 33.9045 70.7917 42.9366 70.4392 51.518ZM29.8687 44.7694C29.7924 44.7964 29.7161 44.8233 29.6398 44.8503C30.5165 52.5834 40.6417 50.9479 39.1575 43.5203C37.859 38.0536 29.9936 38.4201 29.8687 44.7694ZM52.4063 50.0143C57.9572 50.142 58.8807 41.1087 53.5977 39.7704C46.8039 38.1013 45.4963 49.8215 52.4063 50.0143Z" fill="white"/>
</g>
</g>
<defs>
<filter id="filter0_b_2003_417" x="-7.125" y="-7.875" width="101.25" height="101.25" filterUnits="userSpaceOnUse" color-interpolation-filters="sRGB">
<feFlood flood-opacity="0" result="BackgroundImageFix"/>
<feGaussianBlur in="BackgroundImageFix" stdDeviation="3.9375"/>
<feComposite in2="SourceAlpha" operator="in" result="effect1_backgroundBlur_2003_417"/>
<feBlend mode="normal" in="SourceGraphic" in2="effect1_backgroundBlur_2003_417" result="shape"/>
</filter>
<filter id="filter1_d_2003_417" x="12" y="18" width="63" height="49.5" filterUnits="userSpaceOnUse" color-interpolation-filters="sRGB">
<feFlood flood-opacity="0" result="BackgroundImageFix"/>
<feColorMatrix in="SourceAlpha" type="matrix" values="0 0 0 0 0 0 0 0 0 0 0 0 0 0 0 0 0 0 127 0" result="hardAlpha"/>
<feOffset/>
<feGaussianBlur stdDeviation="2.25"/>
<feComposite in2="hardAlpha" operator="out"/>
<feColorMatrix type="matrix" values="0 0 0 0 0 0 0 0 0 0 0 0 0 0 0 0 0 0 0.25 0"/>
<feBlend mode="normal" in2="BackgroundImageFix" result="effect1_dropShadow_2003_417"/>
<feBlend mode="normal" in="SourceGraphic" in2="effect1_dropShadow_2003_417" result="shape"/>
</filter>
<linearGradient id="paint0_linear_2003_417" x1="43.5" y1="0" x2="43.5" y2="85.5" gradientUnits="userSpaceOnUse">
<stop stop-color="white" stop-opacity="0.2"/>
<stop offset="1" stop-opacity="0.2"/>
</linearGradient>
</defs>
</svg>
