<svg width="76" height="77" viewBox="0 0 76 77" fill="none" xmlns="http://www.w3.org/2000/svg">
<g filter="url(#filter0_b_253_413)">
<rect y="0.5" width="76" height="76" rx="38" fill="#6E58F2"/>
<rect x="1" y="1.5" width="74" height="74" rx="37" stroke="url(#paint0_linear_253_413)" stroke-width="2"/>
<g filter="url(#filter1_d_253_413)">
<path fill-rule="evenodd" clip-rule="evenodd" d="M61.9459 46.2937C61.8033 48.0586 62.4535 49.7206 61.2835 50.9606C57.7111 53.0785 53.4806 56.3856 49.3409 56.3056C45.4422 50.5512 47.0668 53.6243 50.6518 50.1897C45.3235 51.1132 39.9072 53.4831 34.1654 52.2132C31.0803 52.1594 28.2459 50.1046 25.3296 50.2476C25.8697 51.7142 29.535 51.3947 28.7469 53.185C27.7246 54.1542 27.3678 56.8281 25.6618 56.4666C21.7613 54.7965 16.7737 53.3814 14.1693 50.029C13.3417 41.2237 15.5734 32.491 20.3177 25.0016C22.6515 21.6632 26.9553 21.8055 30.4654 20.6413C31.3148 20.3587 31.6458 20.9899 31.9525 21.6665C32.8343 23.4675 32.5202 23.0337 34.2963 22.8248C37.0728 22.4979 39.846 22.5027 42.6064 22.9633C43.4037 23.2173 43.5836 22.6516 43.8774 22.0502C44.8314 20.0056 44.764 20.4324 46.4718 20.837C49.307 21.835 52.9524 22.0848 55.1502 24.2045C59.3854 30.6373 62.2593 38.6658 61.9459 46.2937ZM25.8833 40.295C25.8155 40.319 25.7477 40.3429 25.6798 40.3669C26.4591 47.2408 35.4593 45.787 34.14 39.1847C32.9858 34.3254 25.9943 34.6512 25.8833 40.295ZM45.9167 44.9571C50.8508 45.0706 51.6718 37.041 46.9758 35.8515C40.9368 34.3678 39.7745 44.7858 45.9167 44.9571Z" fill="white"/>
</g>
</g>
<defs>
<filter id="filter0_b_253_413" x="-7" y="-6.5" width="90" height="90" filterUnits="userSpaceOnUse" color-interpolation-filters="sRGB">
<feFlood flood-opacity="0" result="BackgroundImageFix"/>
<feGaussianBlur in="BackgroundImageFix" stdDeviation="3.5"/>
<feComposite in2="SourceAlpha" operator="in" result="effect1_backgroundBlur_253_413"/>
<feBlend mode="normal" in="SourceGraphic" in2="effect1_backgroundBlur_253_413" result="shape"/>
</filter>
<filter id="filter1_d_253_413" x="10" y="16.5" width="56" height="44" filterUnits="userSpaceOnUse" color-interpolation-filters="sRGB">
<feFlood flood-opacity="0" result="BackgroundImageFix"/>
<feColorMatrix in="SourceAlpha" type="matrix" values="0 0 0 0 0 0 0 0 0 0 0 0 0 0 0 0 0 0 127 0" result="hardAlpha"/>
<feOffset/>
<feGaussianBlur stdDeviation="2"/>
<feComposite in2="hardAlpha" operator="out"/>
<feColorMatrix type="matrix" values="0 0 0 0 0 0 0 0 0 0 0 0 0 0 0 0 0 0 0.25 0"/>
<feBlend mode="normal" in2="BackgroundImageFix" result="effect1_dropShadow_253_413"/>
<feBlend mode="normal" in="SourceGraphic" in2="effect1_dropShadow_253_413" result="shape"/>
</filter>
<linearGradient id="paint0_linear_253_413" x1="38" y1="0.5" x2="38" y2="76.5" gradientUnits="userSpaceOnUse">
<stop stop-color="white"/>
<stop offset="1" stop-color="#A0A0A0"/>
</linearGradient>
</defs>
</svg>
