<svg width="56" height="56" viewBox="0 0 56 56" fill="none" xmlns="http://www.w3.org/2000/svg">
<g id="Social Icons" clip-path="url(#clip0_921_1271)">
<path id="Vector" d="M28 0C12.5362 0 0 12.5362 0 28C0 41.1309 9.04064 52.1494 21.2363 55.1757V36.5568H15.4627V28H21.2363V24.313C21.2363 14.7829 25.5494 10.3656 34.9059 10.3656C36.68 10.3656 39.741 10.7139 40.9931 11.0611V18.8171C40.3323 18.7477 39.1843 18.713 37.7586 18.713C33.1677 18.713 31.3936 20.4523 31.3936 24.9738V28H40.5395L38.9682 36.5568H31.3936V55.795C45.2581 54.1206 56.0011 42.3158 56.0011 28C56 12.5362 43.4638 0 28 0Z" fill="white"/>
</g>
<defs>
<clipPath id="clip0_921_1271">
<rect width="56" height="56" fill="white"/>
</clipPath>
</defs>
</svg>
