<svg width="56" height="56" viewBox="0 0 56 56" fill="none" xmlns="http://www.w3.org/2000/svg">
<g id="Social Icons" clip-path="url(#clip0_921_1264)">
<path id="Subtract" fill-rule="evenodd" clip-rule="evenodd" d="M28 56C43.464 56 56 43.464 56 28C56 12.536 43.464 0 28 0C12.536 0 0 12.536 0 28C0 43.464 12.536 56 28 56ZM34.8728 14.14C33.084 14.0602 32.5453 14.0403 27.9967 14.0403C23.4481 14.0403 22.9094 14.0602 21.1206 14.14C19.4647 14.2132 18.5603 14.4925 17.9618 14.7252C17.1705 15.0311 16.6052 15.3969 16.0067 15.9954C15.4149 16.5872 15.0425 17.1591 14.7366 17.9505C14.5038 18.549 14.2245 19.4467 14.1514 21.1092C14.0716 22.8981 14.0516 23.4367 14.0516 27.9853C14.0516 32.5273 14.0716 33.066 14.1514 34.8615C14.2245 36.5173 14.5038 37.4217 14.7366 38.0202C15.0425 38.8116 15.4082 39.3768 16.0067 39.9753C16.5986 40.5672 17.1705 40.9396 17.9618 41.2455C18.5603 41.4782 19.4581 41.7575 21.1206 41.8307C22.9094 41.9105 23.4481 41.9304 27.9967 41.9304C32.5387 41.9304 33.0773 41.9105 34.8728 41.8307C36.5287 41.7575 37.4331 41.4782 38.0316 41.2455C38.8229 40.9396 39.3882 40.5738 39.9867 39.9753C40.5785 39.3835 40.9509 38.8116 41.2568 38.0202C41.4896 37.4217 41.7689 36.524 41.842 34.8615C41.9218 33.0726 41.9418 32.534 41.9418 27.9853C41.9418 23.4434 41.9218 22.9047 41.842 21.1092C41.7689 19.4534 41.4896 18.549 41.2568 17.9505C40.9509 17.1591 40.5852 16.5939 39.9867 15.9954C39.3948 15.4035 38.8229 15.0311 38.0316 14.7252C37.4331 14.4925 36.5353 14.2132 34.8728 14.14ZM20.9809 11.0744C22.7964 10.9946 23.3749 10.9746 27.9967 10.9746C32.6185 10.9746 33.197 10.9946 35.0191 11.081C36.8279 11.1608 38.0648 11.4534 39.1488 11.8724C40.266 12.3046 41.2169 12.8898 42.1612 13.8341C43.1122 14.7784 43.6907 15.7294 44.1097 16.8599C44.5286 17.9372 44.8212 19.1807 44.901 20.9895C44.9808 22.805 45.0008 23.3835 45.0008 28.0053C45.0008 32.6271 44.9808 33.2056 44.901 35.0211C44.8212 36.8299 44.5286 38.0668 44.1097 39.1507C43.6774 40.2679 43.0922 41.2189 42.1479 42.1632C41.2036 43.1075 40.2527 43.6927 39.1355 44.1249C38.0582 44.5439 36.8146 44.8365 35.0058 44.9163C33.1904 44.9961 32.6118 45.016 27.99 45.016C23.3683 45.016 22.7897 44.9961 20.9743 44.9163C19.1655 44.8365 17.9286 44.5439 16.8446 44.1249C15.7274 43.6927 14.7765 43.1075 13.8322 42.1632C12.8812 41.2189 12.3027 40.2679 11.8638 39.1441C11.4448 38.0668 11.1522 36.8232 11.0724 35.0144C10.9926 33.199 10.9727 32.6204 10.9727 27.9986C10.9727 23.3769 10.9926 22.7983 11.0724 20.9762C11.1522 19.1674 11.4448 17.9305 11.8638 16.8466C12.3027 15.7294 12.8812 14.7784 13.8322 13.8341C14.7765 12.8832 15.7274 12.3046 16.8513 11.8657C17.9286 11.4468 19.1721 11.1542 20.9809 11.0744ZM19.2519 27.9986C19.2519 23.1707 23.1688 19.2539 27.9967 19.2539C32.8246 19.2539 36.7415 23.1707 36.7415 27.9986C36.7415 32.8266 32.8246 36.7434 27.9967 36.7434C23.1688 36.7434 19.2519 32.8266 19.2519 27.9986ZM22.3242 27.9986C22.3242 31.1308 24.8645 33.6711 27.9967 33.6711C31.1288 33.6711 33.6692 31.1308 33.6692 27.9986C33.6692 24.8665 31.1288 22.3262 27.9967 22.3262C24.8645 22.3262 22.3242 24.8665 22.3242 27.9986ZM39.1288 18.908C39.1288 20.0385 38.2111 20.9496 37.0873 20.9496C35.9568 20.9496 35.0457 20.0319 35.0457 18.908C35.0457 17.7775 35.9634 16.8665 37.0873 16.8665C38.2111 16.8665 39.1288 17.7842 39.1288 18.908Z" fill="white"/>
</g>
<defs>
<clipPath id="clip0_921_1264">
<rect width="56" height="56" fill="white"/>
</clipPath>
</defs>
</svg>
