<svg width="304" height="304" viewBox="0 0 304 304" fill="none" xmlns="http://www.w3.org/2000/svg">
<g filter="url(#filter0_b_450_992)">
<rect width="304" height="304" rx="152" fill="#4093D2"/>
<rect x="4" y="4" width="296" height="296" rx="148" stroke="#9FA5AC" stroke-opacity="0.6" stroke-width="8"/>
<path fill-rule="evenodd" clip-rule="evenodd" d="M210.627 160.585C211.612 153.845 212.597 147.105 213.566 140.363C214.412 134.48 215.232 128.592 216.052 122.705C216.599 118.78 217.146 114.856 217.7 110.932C218.224 107.221 218.765 103.513 219.306 99.8044C219.537 98.222 219.768 96.6394 219.998 95.0564C220.051 91.9103 219.112 89.2895 216.973 87.1392C213.553 83.703 209.737 83.1776 205.47 85.1241C194.726 90.023 183.975 94.9049 173.225 99.7867L173.189 99.8028C171.6 100.525 170.01 101.246 168.421 101.968C163.652 104.134 158.884 106.3 154.116 108.468C129.41 119.704 104.705 130.944 80.0058 142.197C79.3457 142.498 78.6833 142.795 78.0207 143.091C75.4273 144.253 72.8314 145.415 70.3651 146.831C67.2006 148.648 67.2429 153.039 70.3043 155.046C71.3592 155.738 72.5649 156.201 73.7449 156.628C77.008 157.804 80.2754 158.965 83.5426 160.126C83.8172 160.224 84.095 160.323 84.3696 160.42C88.4889 161.884 92.6073 163.35 96.7155 164.847C104.147 167.556 111.148 166.886 117.753 162.186C121.889 159.242 126.038 156.32 130.187 153.397C133.645 150.962 137.102 148.526 140.553 146.079C145.623 142.48 150.691 138.877 155.758 135.274C156.482 134.759 157.206 134.244 157.93 133.729L157.943 133.72C164.473 129.076 171.004 124.431 177.54 119.796C178.239 119.3 179.023 118.779 179.821 118.657C180.439 118.563 181.334 118.894 181.73 119.385C181.969 119.682 181.676 120.806 181.306 121.272C180.168 122.709 178.909 124.044 177.643 125.355C172.797 130.366 167.947 135.372 163.097 140.378C154.092 149.673 145.088 158.968 136.109 168.29C131.508 173.065 131.86 179.596 136.92 183.789C138.526 185.12 140.242 186.3 141.958 187.481C142.687 187.982 143.416 188.484 144.137 188.997C147.117 191.119 150.097 193.242 153.076 195.365C163.458 202.762 173.839 210.159 184.261 217.491C185.837 218.598 187.72 219.506 189.564 219.825C196.67 221.062 202.909 215.605 204.001 207.513C205.155 198.961 206.315 190.407 207.537 181.866C208.427 175.657 209.332 169.451 210.239 163.245C210.368 162.359 210.498 161.471 210.627 160.585Z" fill="white"/>
</g>
<defs>
<filter id="filter0_b_450_992" x="-28" y="-28" width="360" height="360" filterUnits="userSpaceOnUse" color-interpolation-filters="sRGB">
<feFlood flood-opacity="0" result="BackgroundImageFix"/>
<feGaussianBlur in="BackgroundImageFix" stdDeviation="14"/>
<feComposite in2="SourceAlpha" operator="in" result="effect1_backgroundBlur_450_992"/>
<feBlend mode="normal" in="SourceGraphic" in2="effect1_backgroundBlur_450_992" result="shape"/>
</filter>
</defs>
</svg>
