<svg width="87" height="86" viewBox="0 0 87 86" fill="none" xmlns="http://www.w3.org/2000/svg">
<g filter="url(#filter0_b_2003_415)">
<rect x="0.75" width="85.5" height="85.5" rx="22.5" fill="#4093D2" fill-opacity="0.9"/>
<rect x="1.75" y="1" width="83.5" height="83.5" rx="21.5" stroke="url(#paint0_linear_2003_415)" stroke-width="2"/>
<g filter="url(#filter1_d_2003_415)">
<path fill-rule="evenodd" clip-rule="evenodd" d="M59.9889 45.1644C60.2659 43.2689 60.5429 41.3734 60.8154 39.477C61.0533 37.8224 61.284 36.1666 61.5147 34.5108C61.6685 33.407 61.8223 32.3032 61.9782 31.1997C62.1256 30.1559 62.2777 29.113 62.4299 28.07C62.4949 27.6249 62.5598 27.1798 62.6244 26.7346C62.6394 25.8498 62.3754 25.1127 61.7737 24.5079C60.8118 23.5415 59.7385 23.3937 58.5383 23.9412C55.5167 25.319 52.4931 26.692 49.4695 28.065L49.4595 28.0695C49.0125 28.2725 48.5654 28.4756 48.1184 28.6786C46.7772 29.2877 45.4361 29.8969 44.0952 30.5067C37.1465 33.6668 30.1983 36.828 23.2516 39.993C23.066 40.0776 22.8797 40.161 22.6933 40.2445C21.9639 40.5711 21.2338 40.898 20.5402 41.2963C19.6502 41.8074 19.6621 43.0423 20.5231 43.6068C20.8198 43.8014 21.1589 43.9315 21.4908 44.0517C22.4085 44.3825 23.3275 44.709 24.2463 45.0355C24.3236 45.063 24.4017 45.0907 24.479 45.1182C25.6375 45.5299 26.7958 45.9422 27.9512 46.3633C30.0414 47.1253 32.0104 46.9367 33.8681 45.6147C35.0313 44.7868 36.1982 43.9649 37.3651 43.143C38.3376 42.458 39.3101 41.773 40.2804 41.0846C41.7065 40.0726 43.1318 39.0593 44.557 38.0457C44.7606 37.9009 44.9642 37.7562 45.1678 37.6114L45.1714 37.6088C47.0081 36.3025 48.8449 34.9963 50.683 33.6927C50.8798 33.5532 51.1003 33.4065 51.3245 33.3724C51.4985 33.3459 51.7501 33.4391 51.8614 33.5769C51.9287 33.6607 51.8464 33.9766 51.7423 34.1078C51.4224 34.5119 51.0682 34.8874 50.712 35.2562C49.349 36.6654 47.985 38.0734 46.621 39.4814C44.0885 42.0956 41.556 44.7097 39.0306 47.3314C37.7367 48.6744 37.8356 50.5114 39.2589 51.6906C39.7105 52.0651 40.193 52.397 40.6756 52.7289C40.8806 52.87 41.0857 53.0111 41.2885 53.1554C42.1267 53.7521 42.9647 54.3492 43.8027 54.9463C46.7224 57.0267 49.6423 59.1071 52.5733 61.1692C53.0165 61.4807 53.5462 61.736 54.065 61.8259C56.0635 62.1737 57.8181 60.6389 58.1251 58.3631C58.4498 55.9577 58.776 53.5518 59.1197 51.1498C59.3701 49.4036 59.6246 47.6581 59.8796 45.9128C59.916 45.6635 59.9525 45.4137 59.9889 45.1644Z" fill="white"/>
</g>
</g>
<defs>
<filter id="filter0_b_2003_415" x="-7.125" y="-7.875" width="101.25" height="101.25" filterUnits="userSpaceOnUse" color-interpolation-filters="sRGB">
<feFlood flood-opacity="0" result="BackgroundImageFix"/>
<feGaussianBlur in="BackgroundImageFix" stdDeviation="3.9375"/>
<feComposite in2="SourceAlpha" operator="in" result="effect1_backgroundBlur_2003_415"/>
<feBlend mode="normal" in="SourceGraphic" in2="effect1_backgroundBlur_2003_415" result="shape"/>
</filter>
<filter id="filter1_d_2003_415" x="15.375" y="19.125" width="51.75" height="47.25" filterUnits="userSpaceOnUse" color-interpolation-filters="sRGB">
<feFlood flood-opacity="0" result="BackgroundImageFix"/>
<feColorMatrix in="SourceAlpha" type="matrix" values="0 0 0 0 0 0 0 0 0 0 0 0 0 0 0 0 0 0 127 0" result="hardAlpha"/>
<feOffset/>
<feGaussianBlur stdDeviation="2.25"/>
<feComposite in2="hardAlpha" operator="out"/>
<feColorMatrix type="matrix" values="0 0 0 0 0 0 0 0 0 0 0 0 0 0 0 0 0 0 0.25 0"/>
<feBlend mode="normal" in2="BackgroundImageFix" result="effect1_dropShadow_2003_415"/>
<feBlend mode="normal" in="SourceGraphic" in2="effect1_dropShadow_2003_415" result="shape"/>
</filter>
<linearGradient id="paint0_linear_2003_415" x1="43.5" y1="0" x2="43.5" y2="85.5" gradientUnits="userSpaceOnUse">
<stop stop-color="white" stop-opacity="0.2"/>
<stop offset="1" stop-opacity="0.2"/>
</linearGradient>
</defs>
</svg>
