<svg width="48" height="48" viewBox="0 0 48 48" fill="none" xmlns="http://www.w3.org/2000/svg">
<g id="Icon">
<circle id="Ellipse 2" cx="24" cy="24" r="23" stroke="white" stroke-width="2"/>
<g id="Vector" filter="url(#filter0_d_222_2434)">
<path fill-rule="evenodd" clip-rule="evenodd" d="M31.5818 25.2624C31.7308 24.2713 31.8798 23.2802 32.0264 22.2886C32.1544 21.4235 32.2785 20.5577 32.4027 19.6919C32.4854 19.1148 32.5681 18.5376 32.652 17.9606C32.7313 17.4149 32.8132 16.8696 32.8951 16.3242C32.93 16.0915 32.9649 15.8587 32.9997 15.6259C33.0078 15.1633 32.8657 14.7779 32.542 14.4616C32.0245 13.9563 31.447 13.8791 30.8013 14.1653C29.1757 14.8857 27.5489 15.6037 25.9222 16.3216L25.9168 16.3239C25.6763 16.4301 25.4358 16.5362 25.1953 16.6424C24.4737 16.9609 23.7521 17.2794 23.0307 17.5983C19.2923 19.2506 15.554 20.9035 11.8167 22.5584C11.7168 22.6027 11.6166 22.6463 11.5163 22.6899C11.1239 22.8607 10.7311 23.0316 10.3579 23.2399C9.87904 23.5071 9.88544 24.1528 10.3487 24.448C10.5083 24.5498 10.6907 24.6178 10.8693 24.6806C11.3631 24.8536 11.8575 25.0243 12.3518 25.1951C12.3934 25.2094 12.4354 25.2239 12.477 25.2383C13.1003 25.4536 13.7235 25.6691 14.3451 25.8893C15.4696 26.2877 16.529 26.1891 17.5284 25.4979C18.1543 25.065 18.7821 24.6353 19.4099 24.2055C19.9331 23.8473 20.4563 23.4892 20.9783 23.1292C21.7456 22.6001 22.5124 22.0702 23.2792 21.5403C23.3887 21.4645 23.4983 21.3888 23.6078 21.3131L23.6098 21.3118C24.5979 20.6288 25.5861 19.9458 26.5751 19.2641C26.6809 19.1912 26.7996 19.1145 26.9202 19.0967C27.0138 19.0828 27.1492 19.1315 27.2091 19.2036C27.2453 19.2474 27.201 19.4126 27.145 19.4812C26.9729 19.6925 26.7823 19.8888 26.5907 20.0817C25.8574 20.8185 25.1235 21.5547 24.3896 22.291C23.0271 23.6578 21.6646 25.0247 20.3059 26.3955C19.6098 27.0977 19.663 28.0582 20.4288 28.6748C20.6717 28.8707 20.9313 29.0442 21.1909 29.2178C21.3013 29.2915 21.4116 29.3653 21.5207 29.4408C21.9717 29.7527 22.4225 30.0649 22.8734 30.3771C24.4442 31.4649 26.0151 32.5527 27.5921 33.631C27.8305 33.7938 28.1155 33.9273 28.3946 33.9743C29.4698 34.1562 30.4138 33.3537 30.579 32.1637C30.7537 30.906 30.9292 29.648 31.1141 28.392C31.2488 27.479 31.3858 26.5664 31.5229 25.6537C31.5425 25.5234 31.5622 25.3928 31.5818 25.2624Z" fill="white"/>
</g>
</g>
<defs>
<filter id="filter0_d_222_2434" x="6" y="10" width="31" height="28" filterUnits="userSpaceOnUse" color-interpolation-filters="sRGB">
<feFlood flood-opacity="0" result="BackgroundImageFix"/>
<feColorMatrix in="SourceAlpha" type="matrix" values="0 0 0 0 0 0 0 0 0 0 0 0 0 0 0 0 0 0 127 0" result="hardAlpha"/>
<feOffset/>
<feGaussianBlur stdDeviation="2"/>
<feComposite in2="hardAlpha" operator="out"/>
<feColorMatrix type="matrix" values="0 0 0 0 0 0 0 0 0 0 0 0 0 0 0 0 0 0 0.25 0"/>
<feBlend mode="normal" in2="BackgroundImageFix" result="effect1_dropShadow_222_2434"/>
<feBlend mode="normal" in="SourceGraphic" in2="effect1_dropShadow_222_2434" result="shape"/>
</filter>
</defs>
</svg>
