<svg width="76" height="76" viewBox="0 0 76 76" fill="none" xmlns="http://www.w3.org/2000/svg">
<g filter="url(#filter0_b_445_769)">
<rect width="76" height="76" rx="22" fill="#4093D2"/>
<rect x="1" y="1" width="74" height="74" rx="21" stroke="url(#paint0_linear_445_769)" stroke-width="2"/>
<path fill-rule="evenodd" clip-rule="evenodd" d="M52.6568 40.1461C52.9031 38.4613 53.1493 36.7764 53.3914 35.0906C53.603 33.6199 53.808 32.1481 54.0131 30.6763C54.1498 29.6951 54.2865 28.7139 54.4251 27.733C54.5561 26.8053 54.6913 25.8783 54.8266 24.9511C54.8843 24.5555 54.9421 24.1598 54.9995 23.7641C55.0128 22.9776 54.7781 22.3224 54.2433 21.7848C53.3882 20.9257 52.4342 20.7944 51.3674 21.281C48.6815 22.5057 45.9939 23.7262 43.3062 24.9467L43.2974 24.9507C42.9 25.1311 42.5026 25.3116 42.1052 25.4921C40.913 26.0335 39.7209 26.575 38.5291 27.117C32.3524 29.926 26.1762 32.736 20.0015 35.5493C19.8364 35.6245 19.6708 35.6987 19.5052 35.7729C18.8568 36.0632 18.2078 36.3538 17.5913 36.7078C16.8002 37.1621 16.8107 38.2598 17.5761 38.7616C17.8398 38.9346 18.1412 39.0503 18.4362 39.1571C19.252 39.4511 20.0688 39.7413 20.8856 40.0316C20.9543 40.056 21.0238 40.0807 21.0924 40.1051C22.1222 40.471 23.1518 40.8375 24.1789 41.2119C26.0368 41.8891 27.787 41.7215 29.4383 40.5464C30.4723 39.8105 31.5095 39.0799 32.5467 38.3493C33.4112 37.7404 34.2756 37.1316 35.1381 36.5196C36.4058 35.6201 37.6727 34.7194 38.9395 33.8184C39.1205 33.6897 39.3015 33.561 39.4825 33.4323L39.4857 33.43C41.1184 32.2689 42.751 31.1078 44.3849 29.949C44.5598 29.8251 44.7558 29.6947 44.9551 29.6643C45.1098 29.6408 45.3334 29.7236 45.4324 29.8461C45.4922 29.9206 45.419 30.2014 45.3265 30.318C45.0421 30.6773 44.7273 31.011 44.4107 31.3388C43.1992 32.5915 41.9867 33.8431 40.7742 35.0946C38.5231 37.4183 36.272 39.7419 34.0272 42.0724C32.8771 43.2662 32.965 44.899 34.2301 45.9472C34.6316 46.2801 35.0604 46.5751 35.4894 46.8702C35.6717 46.9956 35.854 47.121 36.0342 47.2493C36.7793 47.7796 37.5242 48.3104 38.2691 48.8411C40.8644 50.6904 43.4598 52.5397 46.0652 54.3727C46.4591 54.6495 46.9299 54.8764 47.3911 54.9563C49.1675 55.2655 50.7272 53.9012 51.0001 51.8783C51.2887 49.7402 51.5786 47.6016 51.8842 45.4665C52.1068 43.9143 52.333 42.3628 52.5596 40.8114C52.592 40.5897 52.6245 40.3678 52.6568 40.1461Z" fill="white"/>
</g>
<defs>
<filter id="filter0_b_445_769" x="-7" y="-7" width="90" height="90" filterUnits="userSpaceOnUse" color-interpolation-filters="sRGB">
<feFlood flood-opacity="0" result="BackgroundImageFix"/>
<feGaussianBlur in="BackgroundImageFix" stdDeviation="3.5"/>
<feComposite in2="SourceAlpha" operator="in" result="effect1_backgroundBlur_445_769"/>
<feBlend mode="normal" in="SourceGraphic" in2="effect1_backgroundBlur_445_769" result="shape"/>
</filter>
<linearGradient id="paint0_linear_445_769" x1="38" y1="0" x2="38" y2="76" gradientUnits="userSpaceOnUse">
<stop stop-color="white"/>
<stop offset="1" stop-color="#A0A0A0"/>
</linearGradient>
</defs>
</svg>
