<svg width="304" height="304" viewBox="0 0 304 304" fill="none" xmlns="http://www.w3.org/2000/svg">
<g filter="url(#filter0_b_450_975)">
<rect width="304" height="304" rx="88" fill="black"/>
<rect x="4" y="4" width="296" height="296" rx="84" stroke="#9FA5AC" stroke-opacity="0.6" stroke-width="8"/>
<path d="M193.418 125.308C205.764 134.165 220.89 139.377 237.226 139.377V107.829C234.134 107.83 231.051 107.506 228.026 106.863V131.695C211.691 131.695 196.568 126.484 184.217 117.627V182.007C184.217 214.213 158.202 240.319 126.113 240.319C114.139 240.319 103.01 236.687 93.7656 230.456C104.317 241.283 119.032 248 135.311 248C167.402 248 193.419 221.894 193.419 189.686V125.308H193.418V125.308ZM204.767 93.4799C198.457 86.5618 194.314 77.6214 193.418 67.7374V63.6797H184.699C186.894 76.2423 194.379 86.975 204.767 93.4799ZM114.062 205.742C110.537 201.104 108.632 195.429 108.64 189.594C108.64 174.864 120.54 162.921 135.22 162.921C137.956 162.92 140.676 163.341 143.283 164.171V131.918C140.236 131.499 137.161 131.321 134.087 131.386V156.49C131.477 155.66 128.757 155.238 126.02 155.241C111.34 155.241 99.4409 167.183 99.4409 181.915C99.4409 192.331 105.389 201.349 114.062 205.742Z" fill="#FF004F"/>
<path d="M184.216 117.627C196.566 126.483 211.689 131.695 228.024 131.695V106.862C218.906 104.913 210.834 100.131 204.765 93.48C194.376 86.9743 186.892 76.2416 184.697 63.6797H161.797V189.685C161.745 204.374 149.866 216.269 135.217 216.269C126.584 216.269 118.915 212.139 114.058 205.742C105.385 201.349 99.4378 192.331 99.4378 181.915C99.4378 167.185 111.336 155.242 126.017 155.242C128.83 155.242 131.541 155.681 134.084 156.491V131.387C102.558 132.041 77.2031 157.892 77.2031 189.686C77.2031 205.557 83.517 219.944 93.7644 230.457C103.009 236.687 114.138 240.32 126.111 240.32C158.202 240.32 184.216 214.212 184.216 182.007V117.627H184.216Z" fill="white"/>
<path d="M228.02 106.862V100.148C219.798 100.16 211.737 97.8495 204.761 93.4795C210.937 100.265 219.068 104.943 228.02 106.862ZM184.694 63.6799C184.484 62.4793 184.323 61.2708 184.212 60.0577V56H152.592V182.007C152.542 196.694 140.663 208.589 126.013 208.589C121.712 208.589 117.651 207.564 114.055 205.743C118.912 212.14 126.581 216.268 135.213 216.268C149.861 216.268 161.742 204.375 161.793 189.686V63.6799H184.694ZM134.081 131.387V124.239C131.439 123.877 128.775 123.695 126.108 123.696C94.0153 123.696 68 149.803 68 182.007C68 202.196 78.2245 219.989 93.7614 230.456C83.5139 219.944 77.2001 205.555 77.2001 189.685C77.2001 157.892 102.554 132.041 134.081 131.387Z" fill="#00F2EA"/>
</g>
<defs>
<filter id="filter0_b_450_975" x="-28" y="-28" width="360" height="360" filterUnits="userSpaceOnUse" color-interpolation-filters="sRGB">
<feFlood flood-opacity="0" result="BackgroundImageFix"/>
<feGaussianBlur in="BackgroundImageFix" stdDeviation="14"/>
<feComposite in2="SourceAlpha" operator="in" result="effect1_backgroundBlur_450_975"/>
<feBlend mode="normal" in="SourceGraphic" in2="effect1_backgroundBlur_450_975" result="shape"/>
</filter>
</defs>
</svg>
