<svg width="56" height="56" viewBox="0 0 56 56" fill="none" xmlns="http://www.w3.org/2000/svg">
<g id="icon_tiktok" clip-path="url(#clip0_915_1307)">
<path id="Subtract" fill-rule="evenodd" clip-rule="evenodd" d="M28 56C43.464 56 56 43.464 56 28C56 12.536 43.464 0 28 0C12.536 0 0 12.536 0 28C0 43.464 12.536 56 28 56ZM29.6003 11H35.3221C35.3221 15.3362 38.6965 18.8841 43 19.0319V24.8464C40.2124 24.7971 37.5717 23.8609 35.4199 22.284V34.1594C35.4199 40.1218 30.6273 45 24.71 45C18.7926 45 14 40.1711 14 34.1594C14 28.1971 18.6948 23.4174 24.5144 23.3189V29.1333C21.8735 29.2318 19.7218 31.4493 19.7218 34.1594C19.7218 36.9189 21.9224 39.1855 24.6611 39.1855C27.3997 39.1855 29.6003 36.9189 29.6003 34.1594V11Z" fill="white"/>
</g>
<defs>
<clipPath id="clip0_915_1307">
<rect width="56" height="56" fill="white"/>
</clipPath>
</defs>
</svg>
