<svg width="86" height="86" viewBox="0 0 86 86" fill="none" xmlns="http://www.w3.org/2000/svg">
<g filter="url(#filter0_b_2003_419)">
<rect y="0.5" width="85.5" height="85.5" rx="22.5" fill="black"/>
<rect x="1" y="1.5" width="83.5" height="83.5" rx="21.5" stroke="url(#paint0_linear_2003_419)" stroke-width="2"/>
<path fill-rule="evenodd" clip-rule="evenodd" d="M57.0296 39.5553C54.3757 38.811 52.6735 37.6667 52.6735 37.6667C52.6735 37.6667 51.4923 36.8483 51.4038 36.7926V52.5147C51.4038 53.3892 51.1837 55.5756 50.5222 57.3992C49.6581 59.7807 48.3178 61.3531 48.071 61.6693C48.071 61.6693 46.4395 63.7903 43.574 65.2139C40.9903 66.4977 38.7156 66.4696 38.0368 66.4977C38.0368 66.4977 34.1127 66.6652 30.5771 64.1438C29.8181 63.5916 29.1122 62.9658 28.4653 62.2772C32.0001 64.8039 35.9204 64.6276 35.9204 64.6276C35.9204 64.6276 32.0001 64.7947 28.4653 62.2772C28.4637 62.2759 28.4624 62.275 28.4608 62.2741L28.4429 62.2552C28.0727 61.8552 27.72 61.4368 27.3939 60.9996C26.2651 59.4829 25.5775 57.6966 25.4009 57.1852V57.176C25.3149 56.9058 25.2006 56.5141 25.086 56.0484C25.0964 56.09 25.1063 56.1334 25.1167 56.1738C25.1346 56.2453 25.1529 56.3194 25.1707 56.3869C25.1994 56.4948 25.2268 56.5944 25.2538 56.6909C25.2671 56.7383 25.2812 56.7913 25.2941 56.8361C25.3328 56.9694 25.3693 57.0922 25.4009 57.1944V57.2036C25.5775 57.7062 26.2651 59.5018 27.3939 61.018C27.72 61.4553 28.0727 61.8741 28.4429 62.2741C27.2439 61.3996 26.1857 60.3483 25.2775 59.1483C25.1404 58.965 25.0108 58.7777 24.887 58.5891C24.8521 58.5356 24.8209 58.4821 24.7868 58.4286C24.7004 58.2922 24.6144 58.1562 24.5347 58.0202C24.4993 57.9602 24.4682 57.9018 24.4345 57.8422C24.3614 57.7132 24.2895 57.5856 24.2231 57.4602C24.1902 57.3979 24.1612 57.3391 24.1296 57.2777C24.0689 57.1593 24.0091 57.0426 23.9547 56.9295C23.9227 56.8637 23.8948 56.8027 23.8653 56.7391C23.8184 56.6391 23.7727 56.5409 23.7312 56.4475C23.6992 56.3747 23.6709 56.3093 23.6418 56.2409C23.6111 56.1694 23.5812 56.0997 23.5542 56.0343C23.5201 55.9514 23.491 55.8786 23.4628 55.8058C23.4491 55.7712 23.4353 55.737 23.4229 55.7049C23.3876 55.612 23.3585 55.5339 23.334 55.465L23.4258 55.7431C23.4108 55.7032 23.3676 55.5835 23.3178 55.4199C23.3107 55.3997 23.2995 55.3699 23.2937 55.3523V55.3339C23.0116 54.4501 22.4208 52.3103 22.5089 50.245C22.6501 46.6073 23.8138 44.3653 24.1225 43.8069C24.9335 42.2811 25.9917 40.9044 27.2526 39.7601C28.3636 38.7742 29.6245 37.9834 30.9739 37.4343C31.8202 37.0624 32.7018 36.7926 33.6013 36.6159C34.9594 36.3646 36.3438 36.3457 37.7102 36.5505V38.2808C37.7098 38.2808 37.709 38.2812 37.7081 38.2812C38.4115 38.2628 39.1145 38.3093 39.8087 38.4207V46.1885C39.8087 46.1885 36.908 45.1745 34.5801 46.97C32.9577 48.3007 32.0936 49.5937 31.8377 51.9103C31.8289 53.1633 32.0404 54.8054 33.0226 56.2176C33.0271 56.2203 33.0321 56.2242 33.0371 56.2269C33.2286 56.4992 33.4409 56.7545 33.6715 56.9913C33.4438 56.7584 33.2349 56.5054 33.0458 56.2361C34.8535 57.2501 36.4671 57.2317 38.4684 56.3852C39.9853 55.7431 41.1228 54.2918 41.6517 52.6918C41.987 51.687 41.9778 50.6822 41.9778 49.6402V20H49.2879C49.2788 20 49.1994 20.7351 49.3847 21.8701H49.376C49.5962 23.2377 50.1961 25.1911 51.8006 27.117C52.4446 27.8428 53.1675 28.4941 53.9523 29.0336C54.1206 29.2314 54.8094 29.9858 55.7695 30.6932C54.8152 29.9879 54.1268 29.2314 53.9523 29.0336C54.2257 29.2195 54.499 29.3871 54.7899 29.5454C56.659 30.5221 58.4846 30.8199 59.3836 30.7173V32.3642V32.3734C60.2657 32.5875 61.0152 32.6432 61.5 32.5875V40.1974C61.5 40.1974 58.9341 40.0855 57.0296 39.5553ZM24.6161 52.8739C24.6186 52.9462 24.6256 53.0177 24.6294 53.0896C24.6298 53.1002 24.6306 53.1103 24.6315 53.1203C24.6269 53.0379 24.619 52.9568 24.6161 52.8739ZM24.6622 53.5835C24.6626 53.5879 24.6626 53.5923 24.663 53.5971C24.6726 53.7015 24.6859 53.8028 24.6975 53.9059C24.6996 53.9238 24.7021 53.9414 24.7042 53.9589C24.6892 53.8344 24.6738 53.7102 24.6622 53.5835ZM24.7428 54.2751C24.744 54.283 24.7445 54.2918 24.7457 54.3001C24.7607 54.4058 24.7777 54.5093 24.7943 54.6124C24.7964 54.6265 24.7989 54.6396 24.801 54.6532C24.7806 54.5286 24.7607 54.4032 24.7428 54.2751ZM24.8492 54.9361C24.8512 54.9475 24.8529 54.9598 24.855 54.9712C24.8733 55.0707 24.892 55.1685 24.9115 55.2646C24.9136 55.2756 24.9161 55.2857 24.9181 55.2966C24.8944 55.1791 24.8712 55.0589 24.8492 54.9361ZM24.9701 55.544C24.9738 55.562 24.9775 55.5813 24.9813 55.5992C25.0008 55.6874 25.0203 55.7751 25.0399 55.8593C25.0432 55.8725 25.0461 55.8843 25.0494 55.897C25.0224 55.7843 24.9962 55.6646 24.9701 55.544ZM32.4729 45.1003C34.8007 43.3048 37.7015 44.3188 37.7015 44.3188V44.3096C37.7015 44.3096 34.8007 43.2956 32.4729 45.0907C30.8501 46.4214 29.9864 47.7143 29.7304 50.0309C29.7304 50.0336 29.7304 50.0366 29.7304 50.0393C29.9864 47.7235 30.8505 46.4306 32.4729 45.1003ZM34.4127 57.6317C34.163 57.4518 33.932 57.2479 33.7147 57.029C33.9295 57.2457 34.1572 57.4496 34.4035 57.6317C35.0159 58.0575 35.5976 58.3566 36.1718 58.5619C35.5997 58.3558 35.0201 58.0562 34.4127 57.6317ZM42.2109 57.1207C42.4706 56.8584 42.7107 56.5738 42.9214 56.265C42.7103 56.5733 42.4702 56.858 42.2109 57.1207ZM59.3836 38.3272C59.3836 38.3272 56.8177 38.2158 54.9133 37.6856C52.2593 36.9413 50.5576 35.797 50.5576 35.797C50.5576 35.797 49.376 34.9782 49.2879 34.9225V34.9317C49.3847 34.9874 50.5576 35.8062 50.5576 35.8062C50.5576 35.8062 52.2593 36.9505 54.9133 37.6948C56.8177 38.225 59.3836 38.3369 59.3836 38.3369V38.3272ZM53.917 28.9871L53.961 29.0336C53.1675 28.4941 52.4446 27.8428 51.8093 27.117C50.2131 25.1911 49.6053 23.2377 49.3847 21.8701H51.3951C51.3951 21.8701 50.9984 25.4613 53.917 28.9871Z" fill="white"/>
<path fill-rule="evenodd" clip-rule="evenodd" d="M57.4812 31.3411C55.9301 30.5463 54.7199 29.243 54.4779 28.975C54.7558 29.1598 55.0338 29.3262 55.3295 29.4835C57.2299 30.4539 59.0859 30.7498 60 30.6478V32.284C59.1307 32.0714 58.2791 31.7572 57.4812 31.3411ZM44.4551 21.858V51.306C44.4551 52.3409 44.4551 53.3392 44.1235 54.3375C43.5765 55.927 42.4199 57.3694 40.887 58.0068C38.5739 58.9681 36.7631 58.8574 34.6118 57.3877C34.0736 57.0086 33.6077 56.5371 33.222 56.0011C35.0599 57.0086 36.7006 56.9903 38.7353 56.1493C40.2775 55.5113 41.434 54.0695 41.9717 52.4799C42.3126 51.4816 42.3033 50.4833 42.3033 49.448V20H49.7356C49.7263 20 49.6456 20.7303 49.834 21.858H44.4551ZM29.4749 41.49C28.1929 42.6268 27.117 43.9946 26.2921 45.5106C25.9786 46.0653 24.7951 48.2832 24.6514 51.9064C24.5708 53.9584 25.1714 56.0752 25.4494 56.9532V56.9624C25.6289 57.4617 26.328 59.2457 27.4756 60.752C27.8072 61.1865 28.1659 61.6026 28.5422 62C27.3232 61.1311 26.2473 60.0867 25.3239 58.8945C24.2493 57.4896 23.5718 55.8512 23.3479 55.2351L23.4413 55.5113C23.4261 55.4717 23.3821 55.3527 23.3314 55.1902C23.3243 55.1702 23.3128 55.1405 23.3069 55.1231V55.1048C23.0201 54.2268 22.4195 52.1008 22.509 50.0489C22.6526 46.4348 23.8358 44.2073 24.1496 43.6526C24.9742 42.1366 26.05 40.7688 27.332 39.632C28.4615 38.6524 29.7435 37.8668 31.1155 37.3212C31.976 36.9517 32.8723 36.6837 33.7868 36.5081C35.1676 36.2585 36.5751 36.2397 37.9644 36.4432V38.1622C36.3419 38.1901 34.7461 38.5322 33.258 39.1792C31.8775 39.7244 30.6044 40.51 29.4749 41.49Z" fill="#69C9D0"/>
<path fill-rule="evenodd" clip-rule="evenodd" d="M57.0245 39.7846C54.3675 39.0467 52.6634 37.9121 52.6634 37.9121C52.6634 37.9121 51.4809 37.1007 51.3923 37.0455V52.6337C51.3923 53.5008 51.1719 55.6685 50.5097 57.4767C49.6445 59.8379 48.3027 61.3969 48.0557 61.7104C48.0557 61.7104 46.4223 63.8134 43.5536 65.2249C40.9668 66.4977 38.6896 66.4699 38.0099 66.4977C38.0099 66.4977 34.0814 66.6638 30.5418 64.1638C29.7819 63.6164 29.0752 62.9958 28.4276 62.3131C31.9664 64.8183 35.8912 64.6435 35.8912 64.6435C36.5708 64.6161 38.8485 64.6435 41.4348 63.3707C44.3039 61.9596 45.9369 59.8562 45.9369 59.8562C46.1839 59.5427 47.5258 57.9837 48.3909 55.6224C49.0531 53.8148 49.2739 51.647 49.2739 50.7799V35.2004C49.3709 35.2556 50.545 36.0675 50.545 36.0675C50.545 36.0675 52.2487 37.202 54.9057 37.94C56.8124 38.4657 59.3812 38.5766 59.3812 38.5766V32.6639C60.2642 32.8761 61.0146 32.9313 61.5 32.8761V40.4212C61.5 40.4212 58.9312 40.3104 57.0245 39.7846ZM28.4051 62.2914C28.4126 62.2992 28.4205 62.3053 28.4276 62.3131C28.4259 62.3118 28.4247 62.3109 28.423 62.3101L28.4051 62.2914ZM51.7987 27.4522C50.2007 25.5427 49.5917 23.6059 49.3709 22.25H51.3836C51.3836 22.25 50.9864 25.8106 53.9083 29.3064L53.9524 29.3525C53.158 28.8176 52.4346 28.1718 51.7987 27.4522ZM34.5493 47.1363C32.9251 48.4556 32.06 49.7376 31.8037 52.0345C31.795 53.2795 32.0071 54.9123 32.9958 56.3143C32.7483 56.176 32.5013 56.019 32.2455 55.8438C30.0826 54.2574 29.6854 51.8684 29.6941 50.1802C29.9503 47.8833 30.8151 46.6014 32.4397 45.2825C34.7702 43.5022 37.6743 44.5076 37.6743 44.5076V38.5209C38.3805 38.5027 39.0868 38.5488 39.7839 38.6597V46.3614C39.7839 46.3614 36.8798 45.356 34.5493 47.1363ZM23.3823 55.8347C23.3648 55.7886 23.312 55.6503 23.25 55.4381L23.3823 55.8347Z" fill="#EE1D52"/>
</g>
<defs>
<filter id="filter0_b_2003_419" x="-7.875" y="-7.375" width="101.25" height="101.25" filterUnits="userSpaceOnUse" color-interpolation-filters="sRGB">
<feFlood flood-opacity="0" result="BackgroundImageFix"/>
<feGaussianBlur in="BackgroundImageFix" stdDeviation="3.9375"/>
<feComposite in2="SourceAlpha" operator="in" result="effect1_backgroundBlur_2003_419"/>
<feBlend mode="normal" in="SourceGraphic" in2="effect1_backgroundBlur_2003_419" result="shape"/>
</filter>
<linearGradient id="paint0_linear_2003_419" x1="42.75" y1="0.5" x2="42.75" y2="86" gradientUnits="userSpaceOnUse">
<stop stop-color="white"/>
<stop offset="1" stop-color="#A0A0A0"/>
</linearGradient>
</defs>
</svg>
