<svg width="76" height="76" viewBox="0 0 76 76" fill="none" xmlns="http://www.w3.org/2000/svg">
<g filter="url(#filter0_b_445_788)">
<rect width="76" height="76" rx="22" fill="black"/>
<rect x="1" y="1" width="74" height="74" rx="21" stroke="url(#paint0_linear_445_788)" stroke-width="2"/>
<path d="M48.3524 31.3269C51.4391 33.5413 55.2205 34.8442 59.3045 34.8442V26.9572C58.5316 26.9574 57.7607 26.8765 57.0045 26.7157V32.9239C52.9208 32.9239 49.1399 31.621 46.0524 29.4068V45.5017C46.0524 53.5533 39.5486 60.0798 31.5262 60.0798C28.5328 60.0798 25.7506 59.1716 23.4395 57.6141C26.0773 60.3208 29.7559 62 33.8257 62C41.8486 62 48.3528 55.4734 48.3528 47.4215V31.3269H48.3524V31.3269ZM51.1898 23.37C49.6123 21.6405 48.5765 19.4053 48.3524 16.9343V15.9199H46.1728C46.7215 19.0606 48.5928 21.7437 51.1898 23.37ZM28.5136 51.4356C27.6323 50.2759 27.156 48.8572 27.1581 47.3985C27.1581 43.716 30.1329 40.7302 33.8031 40.7302C34.487 40.7301 35.1669 40.8352 35.8188 41.0427V32.9795C35.057 32.8748 34.2882 32.8303 33.5197 32.8466V39.1226C32.8674 38.915 32.1872 38.8096 31.503 38.8103C27.8329 38.8103 24.8583 41.7957 24.8583 45.4787C24.8583 48.0828 26.3452 50.3373 28.5136 51.4356Z" fill="#FF004F"/>
<path d="M46.0539 29.4066C49.1414 31.6208 52.9223 32.9237 57.006 32.9237V26.7156C54.7265 26.2283 52.7085 25.0328 51.1912 23.37C48.5941 21.7436 46.723 19.0604 46.1743 15.9199H40.4491V47.4212C40.4362 51.0936 37.4665 54.0672 33.8042 54.0672C31.6461 54.0672 29.7289 53.0348 28.5146 51.4356C26.3464 50.3373 24.8594 48.0826 24.8594 45.4789C24.8594 41.7962 27.8341 38.8104 31.5042 38.8104C32.2074 38.8104 32.8851 38.9203 33.5209 39.1228V32.8468C25.6394 33.0102 19.3008 39.473 19.3008 47.4214C19.3008 51.3892 20.8792 54.9861 23.4411 57.6143C25.7523 59.1716 28.5345 60.08 31.5278 60.08C39.5504 60.08 46.0541 53.5531 46.0541 45.5017V29.4066H46.0539Z" fill="white"/>
<path d="M57.0051 26.7156V25.037C54.9495 25.0401 52.9343 24.4624 51.1903 23.3699C52.7342 25.0661 54.7671 26.2357 57.0051 26.7156ZM46.1734 15.92C46.1211 15.6198 46.0809 15.3177 46.053 15.0144V14H38.148V45.5016C38.1354 49.1735 35.1658 52.1471 31.5033 52.1471C30.428 52.1471 29.4128 51.891 28.5137 51.4358C29.7279 53.0349 31.6452 54.0671 33.8033 54.0671C37.4652 54.0671 40.4354 51.0938 40.4482 47.4214V15.92H46.1734ZM33.5203 32.8468V31.0598C32.8598 30.9692 32.1938 30.9237 31.5271 30.924C23.5038 30.9239 17 37.4508 17 45.5016C17 50.5491 19.5561 54.9974 23.4403 57.614C20.8785 54.986 19.3 51.3889 19.3 47.4213C19.3 39.473 25.6385 33.0102 33.5203 32.8468Z" fill="#00F2EA"/>
</g>
<defs>
<filter id="filter0_b_445_788" x="-7" y="-7" width="90" height="90" filterUnits="userSpaceOnUse" color-interpolation-filters="sRGB">
<feFlood flood-opacity="0" result="BackgroundImageFix"/>
<feGaussianBlur in="BackgroundImageFix" stdDeviation="3.5"/>
<feComposite in2="SourceAlpha" operator="in" result="effect1_backgroundBlur_445_788"/>
<feBlend mode="normal" in="SourceGraphic" in2="effect1_backgroundBlur_445_788" result="shape"/>
</filter>
<linearGradient id="paint0_linear_445_788" x1="38" y1="0" x2="38" y2="76" gradientUnits="userSpaceOnUse">
<stop stop-color="white"/>
<stop offset="1" stop-color="#A0A0A0"/>
</linearGradient>
</defs>
</svg>
