<svg width="76" height="77" viewBox="0 0 76 77" fill="none" xmlns="http://www.w3.org/2000/svg">
<g filter="url(#filter0_b_253_415)">
<rect y="0.5" width="76" height="76" rx="38" fill="black"/>
<rect x="1" y="1.5" width="74" height="74" rx="37" stroke="url(#paint0_linear_253_415)" stroke-width="2"/>
<path fill-rule="evenodd" clip-rule="evenodd" d="M50.693 35.2155C48.3339 34.5539 46.8209 33.5368 46.8209 33.5368C46.8209 33.5368 45.771 32.8093 45.6923 32.7598V46.7349C45.6923 47.5123 45.4966 49.4557 44.9087 51.0767C44.1405 53.1937 42.9492 54.5913 42.7298 54.8724C42.7298 54.8724 41.2795 56.7577 38.7325 58.0232C36.4358 59.1643 34.4139 59.1393 33.8105 59.1643C33.8105 59.1643 30.3224 59.3132 27.1797 57.0719C26.505 56.5811 25.8775 56.0248 25.3025 55.4127C28.4445 57.6587 31.9292 57.502 31.9292 57.502C31.9292 57.502 28.4445 57.6505 25.3025 55.4127C25.3011 55.4115 25.2999 55.4108 25.2985 55.41L25.2826 55.3932C24.9535 55.0377 24.64 54.6658 24.3501 54.2771C23.3467 52.929 22.7355 51.3411 22.5786 50.8865V50.8783C22.5021 50.6382 22.4006 50.29 22.2986 49.876C22.3079 49.913 22.3167 49.9516 22.326 49.9875C22.3419 50.051 22.3581 50.1169 22.374 50.177C22.3995 50.2729 22.4238 50.3614 22.4478 50.4471C22.4597 50.4892 22.4722 50.5364 22.4837 50.5762C22.518 50.6947 22.5505 50.8038 22.5786 50.8947V50.9029C22.7355 51.3496 23.3467 52.9457 24.3501 54.2934C24.64 54.6821 24.9535 55.0544 25.2826 55.41C24.2168 54.6326 23.2762 53.6981 22.4689 52.6315C22.347 52.4685 22.2318 52.3021 22.1217 52.1344C22.0907 52.0869 22.063 52.0393 22.0327 51.9917C21.9559 51.8705 21.8795 51.7496 21.8086 51.6288C21.7772 51.5754 21.7495 51.5235 21.7196 51.4705C21.6546 51.3559 21.5907 51.2424 21.5316 51.1309C21.5024 51.0756 21.4766 51.0233 21.4485 50.9688C21.3946 50.8635 21.3414 50.7598 21.293 50.6592C21.2646 50.6007 21.2399 50.5465 21.2136 50.49C21.1719 50.4011 21.1313 50.3138 21.0944 50.2308C21.0659 50.166 21.0408 50.108 21.015 50.0471C20.9876 49.9836 20.961 49.9216 20.937 49.8635C20.9068 49.7898 20.8809 49.7251 20.8558 49.6604C20.8436 49.6296 20.8314 49.5992 20.8203 49.5707C20.7889 49.4881 20.7631 49.4187 20.7413 49.3575L20.8229 49.6047C20.8096 49.5692 20.7712 49.4627 20.7269 49.3173C20.7206 49.2994 20.7107 49.2729 20.7055 49.2573V49.2409C20.4547 48.4554 19.9296 46.5533 20.0079 44.7174C20.1334 41.484 21.1678 39.491 21.4422 38.9947C22.1631 37.6384 23.1037 36.4147 24.2245 35.3975C25.212 34.5212 26.3329 33.8182 27.5324 33.3301C28.2846 32.9995 29.0683 32.7598 29.8678 32.6027C31.0751 32.3793 32.3056 32.3625 33.5202 32.5446V34.0826C33.5198 34.0826 33.5191 34.083 33.5183 34.083C34.1436 34.0666 34.7684 34.1079 35.3855 34.2069V41.1117C35.3855 41.1117 32.8071 40.2103 30.7379 41.8064C29.2958 42.9892 28.5276 44.1385 28.3001 46.1977C28.2924 47.3115 28.4804 48.7711 29.3534 50.0265C29.3574 50.0288 29.3619 50.0323 29.3663 50.0347C29.5366 50.2768 29.7253 50.5037 29.9302 50.7142C29.7278 50.5072 29.5421 50.2822 29.3741 50.0429C30.9809 50.9442 32.4152 50.9278 34.1942 50.1754C35.5425 49.6047 36.5536 48.3146 37.0237 46.8924C37.3218 45.9993 37.3136 45.1061 37.3136 44.1798V17.833H43.8115C43.8033 17.833 43.7328 18.4864 43.8975 19.4954H43.8898C44.0855 20.7109 44.6188 22.4473 46.045 24.1592C46.6174 24.8044 47.26 25.3833 47.9576 25.8629C48.1072 26.0387 48.7195 26.7092 49.5729 27.3381C48.7246 26.7112 48.1127 26.0387 47.9576 25.8629C48.2006 26.0282 48.4436 26.1771 48.7021 26.3178C50.3636 27.186 51.9863 27.4507 52.7854 27.3595V28.8234V28.8316C53.5695 29.0219 54.2357 29.0714 54.6667 29.0219V35.7862C54.6667 35.7862 52.3859 35.6868 50.693 35.2155ZM21.881 47.0542C21.8832 47.1185 21.8895 47.1821 21.8928 47.246C21.8932 47.2554 21.8939 47.2644 21.8946 47.2733C21.8906 47.2 21.8836 47.1279 21.881 47.0542ZM21.922 47.685C21.9223 47.6889 21.9223 47.6928 21.9227 47.6971C21.9312 47.7899 21.943 47.8799 21.9533 47.9715C21.9552 47.9875 21.9574 48.0031 21.9593 48.0187C21.946 47.908 21.9323 47.7977 21.922 47.685ZM21.9936 48.2998C21.9947 48.3068 21.9951 48.3146 21.9962 48.322C22.0095 48.416 22.0246 48.508 22.0394 48.5996C22.0412 48.6121 22.0435 48.6238 22.0453 48.6359C22.0272 48.5251 22.0095 48.4136 21.9936 48.2998ZM22.0881 48.8873C22.09 48.8975 22.0915 48.9084 22.0933 48.9185C22.1096 49.007 22.1262 49.0939 22.1435 49.1793C22.1454 49.1891 22.1476 49.198 22.1494 49.2078C22.1284 49.1033 22.1077 48.9965 22.0881 48.8873ZM22.1956 49.4277C22.1989 49.4436 22.2023 49.4608 22.2056 49.4768C22.2229 49.5551 22.2403 49.6331 22.2577 49.708C22.2606 49.7197 22.2632 49.7302 22.2661 49.7415C22.2421 49.6413 22.2189 49.5349 22.1956 49.4277ZM28.8648 40.1444C30.934 38.5484 33.5124 39.4497 33.5124 39.4497V39.4415C33.5124 39.4415 30.934 38.5402 28.8648 40.1358C27.4223 41.3187 26.6545 42.468 26.427 44.5272C26.427 44.5295 26.427 44.5322 26.427 44.5346C26.6545 42.4762 27.4227 41.3269 28.8648 40.1444ZM30.5891 51.2834C30.3671 51.1235 30.1618 50.9422 29.9686 50.7477C30.1596 50.9403 30.3619 51.1216 30.5809 51.2834C31.1253 51.6619 31.6423 51.9278 32.1527 52.1103C31.6441 51.927 31.129 51.6608 30.5891 51.2834ZM37.5208 50.8292C37.7516 50.5961 37.9651 50.343 38.1523 50.0686C37.9647 50.3427 37.7513 50.5957 37.5208 50.8292ZM52.7854 34.1239C52.7854 34.1239 50.5047 34.0249 48.8118 33.5535C46.4527 32.8919 44.94 31.8748 44.94 31.8748C44.94 31.8748 43.8898 31.147 43.8115 31.0974V31.1056C43.8975 31.1551 44.94 31.883 44.94 31.883C44.94 31.883 46.4527 32.9001 48.8118 33.5617C50.5047 34.0331 52.7854 34.1325 52.7854 34.1325V34.1239ZM47.9262 25.8215L47.9654 25.8629C47.26 25.3833 46.6174 24.8044 46.0527 24.1592C44.6339 22.4473 44.0936 20.7109 43.8975 19.4954H45.6846C45.6846 19.4954 45.3319 22.6875 47.9262 25.8215Z" fill="white"/>
<path fill-rule="evenodd" clip-rule="evenodd" d="M51.0944 27.914C49.7157 27.2075 48.6399 26.049 48.4248 25.8108C48.6719 25.975 48.9189 26.123 49.1817 26.2628C50.871 27.1254 52.5208 27.3884 53.3333 27.2977V28.7522C52.5606 28.5631 51.8037 28.2839 51.0944 27.914ZM39.5156 19.4846V45.6605C39.5156 46.5805 39.5156 47.4678 39.2209 48.3552C38.7346 49.7682 37.7066 51.0502 36.344 51.6169C34.2879 52.4713 32.6783 52.3729 30.766 51.0665C30.2877 50.7295 29.8735 50.3104 29.5307 49.834C31.1644 50.7295 32.6227 50.7132 34.4314 49.9657C35.8022 49.3986 36.8302 48.117 37.3082 46.704C37.6112 45.8166 37.603 44.9293 37.603 44.009V17.833H44.2094C44.2011 17.833 44.1294 18.4822 44.2969 19.4846H39.5156ZM26.1999 36.9352C25.0603 37.9458 24.104 39.1616 23.3707 40.5091C23.0921 41.0022 22.0401 42.9737 21.9124 46.1943C21.8407 48.0182 22.3746 49.8998 22.6217 50.6803V50.6884C22.7812 51.1323 23.4026 52.718 24.4228 54.057C24.7175 54.4432 25.0363 54.8131 25.3709 55.1663C24.2873 54.394 23.3309 53.4656 22.5101 52.4059C21.5549 51.1571 20.9527 49.7008 20.7537 49.1531L20.8367 49.3986C20.8232 49.3634 20.7841 49.2577 20.7391 49.1132C20.7327 49.0954 20.7225 49.069 20.7173 49.0535V49.0373C20.4623 48.2568 19.9284 46.367 20.008 44.5431C20.1357 41.3306 21.1874 39.3506 21.4663 38.8575C22.1993 37.51 23.1556 36.2942 24.2951 35.2837C25.2991 34.4129 26.4387 33.7146 27.6582 33.2297C28.4231 32.9012 29.2198 32.663 30.0327 32.5069C31.2601 32.285 32.5112 32.2683 33.7461 32.4492V33.9772C32.3039 34.002 30.8854 34.306 29.5626 34.8812C28.3356 35.3658 27.2039 36.0641 26.1999 36.9352Z" fill="#69C9D0"/>
<path fill-rule="evenodd" clip-rule="evenodd" d="M50.6898 35.4193C48.328 34.7634 46.8132 33.7549 46.8132 33.7549C46.8132 33.7549 45.7621 33.0336 45.6834 32.9845V46.8407C45.6834 47.6115 45.4874 49.5384 44.8988 51.1456C44.1298 53.2445 42.9371 54.6302 42.7174 54.9089C42.7174 54.9089 41.2655 56.7782 38.7156 58.0329C36.4163 59.1643 34.392 59.1396 33.7879 59.1643C33.7879 59.1643 30.2959 59.312 27.1496 57.0898C26.4741 56.6031 25.8459 56.0515 25.2703 55.4447C28.4159 57.6715 31.9046 57.5161 31.9046 57.5161C32.5087 57.4918 34.5333 57.5161 36.8322 56.3847C39.3826 55.1304 40.8341 53.2607 40.8341 53.2607C41.0537 52.982 42.2464 51.5963 43.0154 49.4974C43.604 47.8906 43.8004 45.9637 43.8004 45.1929V31.3445C43.8865 31.3936 44.9302 32.1152 44.9302 32.1152C44.9302 32.1152 46.4446 33.1237 48.8064 33.7796C50.5012 34.247 52.7846 34.3455 52.7846 34.3455V29.0898C53.5695 29.2784 54.2365 29.3275 54.668 29.2784V35.9852C54.668 35.9852 52.3846 35.8867 50.6898 35.4193ZM25.2503 55.4253C25.257 55.4323 25.264 55.4377 25.2703 55.4447C25.2688 55.4435 25.2677 55.4427 25.2662 55.442L25.2503 55.4253ZM46.0446 24.4571C44.6241 22.7599 44.0828 21.0382 43.8865 19.833H45.6756C45.6756 19.833 45.3225 22.998 47.9198 26.1053L47.959 26.1463C47.2528 25.6709 46.6099 25.0969 46.0446 24.4571ZM30.7118 41.9541C29.2681 43.1269 28.499 44.2664 28.2713 46.3081C28.2635 47.4147 28.4521 48.8662 29.3309 50.1124C29.1109 49.9895 28.8913 49.8499 28.6639 49.6942C26.7414 48.2841 26.3883 46.1604 26.3961 44.6599C26.6238 42.6182 27.3925 41.4787 28.8366 40.3063C30.9082 38.7238 33.4896 39.6175 33.4896 39.6175V34.2961C34.1173 34.2798 34.7451 34.3208 35.3648 34.4194V41.2653C35.3648 41.2653 32.7834 40.3717 30.7118 41.9541ZM20.7855 49.686C20.77 49.6451 20.7231 49.5221 20.668 49.3335L20.7855 49.686Z" fill="#EE1D52"/>
</g>
<defs>
<filter id="filter0_b_253_415" x="-7" y="-6.5" width="90" height="90" filterUnits="userSpaceOnUse" color-interpolation-filters="sRGB">
<feFlood flood-opacity="0" result="BackgroundImageFix"/>
<feGaussianBlur in="BackgroundImageFix" stdDeviation="3.5"/>
<feComposite in2="SourceAlpha" operator="in" result="effect1_backgroundBlur_253_415"/>
<feBlend mode="normal" in="SourceGraphic" in2="effect1_backgroundBlur_253_415" result="shape"/>
</filter>
<linearGradient id="paint0_linear_253_415" x1="38" y1="0.5" x2="38" y2="76.5" gradientUnits="userSpaceOnUse">
<stop stop-color="white"/>
<stop offset="1" stop-color="#A0A0A0"/>
</linearGradient>
</defs>
</svg>
