<svg width="56" height="56" viewBox="0 0 56 56" fill="none" xmlns="http://www.w3.org/2000/svg">
<g id="icon_X" clip-path="url(#clip0_915_1295)">
<path id="Subtract" fill-rule="evenodd" clip-rule="evenodd" d="M28 56C43.464 56 56 43.464 56 28C56 12.536 43.464 0 28 0C12.536 0 0 12.536 0 28C0 43.464 12.536 56 28 56ZM42.1087 13H37.2019L29.1162 22.2666L22.1252 13H12L24.0981 28.8608L12.6319 42H17.5417L26.3913 31.8619L34.1254 42H44L31.3887 25.2841L42.1087 13ZM38.1987 39.0554H35.4797L17.7301 15.7899H20.6478L38.1987 39.0554Z" fill="white"/>
</g>
<defs>
<clipPath id="clip0_915_1295">
<rect width="56" height="56" fill="white"/>
</clipPath>
</defs>
</svg>
