<svg width="86" height="86" viewBox="0 0 86 86" fill="none" xmlns="http://www.w3.org/2000/svg">
<g filter="url(#filter0_b_2003_418)">
<rect x="0.5" y="0.5" width="85.5" height="85.5" rx="22.5" fill="white"/>
<rect x="1.5" y="1.5" width="83.5" height="83.5" rx="21.5" stroke="url(#paint0_linear_2003_418)" stroke-width="2"/>
<path fill-rule="evenodd" clip-rule="evenodd" d="M16.25 47.8338C16.25 44.7827 16.25 41.7322 16.25 38.6816C16.2752 38.8583 16.3009 39.035 16.3261 39.2117C16.4037 38.1705 16.4331 37.1272 16.526 36.0885C16.6393 34.8113 16.7564 33.5312 16.962 32.2655C17.1793 30.9311 17.6442 29.6474 18.4591 28.5315C19.6213 26.9408 21.3104 26.1036 23.3174 25.8667C24.5085 25.7264 25.7122 25.6602 26.9122 25.6024C28.9822 25.5034 31.0533 25.4222 33.1248 25.361C35.0742 25.3033 37.025 25.2485 38.9749 25.25C43.3678 25.2535 47.7612 25.2575 52.1531 25.3297C55.1115 25.3784 58.0693 25.5258 61.025 25.6691C62.0293 25.7179 63.0462 25.81 64.0232 26.023C66.0586 26.4675 67.6233 27.5421 68.5426 29.3612C69.3826 31.0246 69.7221 32.8025 69.8628 34.6197C69.9619 35.8994 70.017 37.182 70.0936 38.4631C70.1005 38.5691 70.1256 38.6737 70.1419 38.7787C70.1498 38.7762 70.1571 38.7742 70.1645 38.7717C70.1928 38.4761 70.2211 38.1809 70.25 37.8858C70.25 41.1852 70.25 44.4846 70.25 47.784C70.2232 47.6556 70.1965 47.5277 70.1697 47.3993C70.0847 48.3723 70.0585 49.3484 69.9771 50.3204C69.8785 51.5 69.7547 52.6782 69.6025 53.8528C69.4225 55.2424 68.9125 56.5405 68.1915 57.7535C67.5288 58.8684 66.4275 59.5288 65.2384 60.0629C64.1213 60.5651 62.9029 60.6537 61.6992 60.7448C60.081 60.8677 58.457 60.9354 56.8346 61.0021C55.2636 61.0668 53.6921 61.1176 52.12 61.143C49.0358 61.1932 45.9515 61.2564 42.8672 61.2495C39.8454 61.243 36.823 61.1564 33.8012 61.1036C32.7381 61.0847 31.674 61.0902 30.613 61.035C28.5362 60.9269 26.4604 60.802 24.3873 60.6487C23.4265 60.5775 22.47 60.4387 21.5575 60.1122C20.0421 59.5706 18.8222 58.7066 18.0729 57.3155C17.4427 56.1448 17.0261 54.8995 16.8608 53.6084C16.6425 51.9007 16.5438 50.1791 16.4069 48.4629C16.3765 48.0767 16.4027 47.686 16.4027 47.2977C16.3796 47.2977 16.3565 47.2982 16.3334 47.2987C16.3056 47.4769 16.2778 47.6551 16.25 47.8338ZM37.6605 49.9078C37.7549 49.8755 37.8042 49.864 37.8483 49.8421C40.0731 48.7466 42.2963 47.6486 44.5216 46.5546C47.0266 45.3228 49.5343 44.0944 52.0387 42.862C52.1106 42.8267 52.1652 42.761 52.2276 42.7092C52.1646 42.659 52.109 42.5952 52.0377 42.5594C50.7017 41.8979 49.3648 41.2384 48.0262 40.5814C46.1745 39.6721 44.3181 38.7707 42.47 37.8549C40.994 37.1233 39.5279 36.3747 38.0572 35.6356C37.9396 35.5763 37.8147 35.53 37.6605 35.4638C37.6605 40.2982 37.6605 45.0834 37.6605 49.9078Z" fill="#FF0000"/>
<path d="M37.6605 49.9078C37.7549 49.8755 37.8042 49.864 37.8483 49.8421C40.0731 48.7466 42.2963 47.6486 44.5216 46.5546C47.0266 45.3228 49.5343 44.0944 52.0387 42.862C52.1106 42.8267 52.1652 42.761 52.2276 42.7092C52.1646 42.659 52.109 42.5952 52.0377 42.5594C50.7017 41.8979 49.3648 41.2384 48.0262 40.5814C46.1745 39.6721 44.3181 38.7707 42.47 37.8549C40.994 37.1233 39.5279 36.3747 38.0572 35.6356C37.9396 35.5763 37.8147 35.53 37.6605 35.4638V49.9078Z" fill="white"/>
</g>
<defs>
<filter id="filter0_b_2003_418" x="-7.375" y="-7.375" width="101.25" height="101.25" filterUnits="userSpaceOnUse" color-interpolation-filters="sRGB">
<feFlood flood-opacity="0" result="BackgroundImageFix"/>
<feGaussianBlur in="BackgroundImageFix" stdDeviation="3.9375"/>
<feComposite in2="SourceAlpha" operator="in" result="effect1_backgroundBlur_2003_418"/>
<feBlend mode="normal" in="SourceGraphic" in2="effect1_backgroundBlur_2003_418" result="shape"/>
</filter>
<linearGradient id="paint0_linear_2003_418" x1="43.25" y1="0.5" x2="43.25" y2="86" gradientUnits="userSpaceOnUse">
<stop stop-color="white"/>
<stop offset="1" stop-color="#A0A0A0"/>
</linearGradient>
</defs>
</svg>
