<svg width="76" height="77" viewBox="0 0 76 77" fill="none" xmlns="http://www.w3.org/2000/svg">
<g filter="url(#filter0_b_253_414)">
<rect y="0.5" width="76" height="76" rx="38" fill="white"/>
<rect x="1" y="1.5" width="74" height="74" rx="37" stroke="url(#paint0_linear_253_414)" stroke-width="2"/>
<path fill-rule="evenodd" clip-rule="evenodd" d="M14 42.5745C14 39.8624 14 37.1508 14 34.4392C14.0224 34.5963 14.0452 34.7533 14.0676 34.9104C14.1367 33.9849 14.1628 33.0575 14.2453 32.1342C14.3461 30.999 14.4501 29.861 14.6329 28.736C14.826 27.5498 15.2393 26.4088 15.9636 25.4169C16.9967 24.0029 18.4981 23.2588 20.2821 23.0482C21.3409 22.9234 22.4108 22.8646 23.4775 22.8133C25.3175 22.7252 27.1585 22.6531 28.9999 22.5987C30.7326 22.5474 32.4667 22.4987 34.1999 22.5C38.1047 22.5031 42.01 22.5067 45.9139 22.5708C48.5435 22.6142 51.1727 22.7451 53.8 22.8725C54.6927 22.9159 55.5966 22.9978 56.4651 23.1871C58.2743 23.5822 59.6651 24.5374 60.4823 26.1544C61.229 27.633 61.5308 29.2133 61.6558 30.8286C61.7439 31.9661 61.7929 33.1062 61.861 34.245C61.8671 34.3392 61.8895 34.4321 61.9039 34.5255C61.9109 34.5233 61.9174 34.5215 61.924 34.5193C61.9492 34.2565 61.9743 33.9942 62 33.7318C62 36.6646 62 39.5974 62 42.5302C61.9762 42.4161 61.9524 42.3024 61.9286 42.1883C61.8531 43.0532 61.8298 43.9208 61.7575 44.7848C61.6698 45.8334 61.5597 46.8806 61.4244 47.9247C61.2645 49.1599 60.8111 50.3138 60.1703 51.392C59.5812 52.383 58.6022 52.9701 57.5453 53.4448C56.5523 53.8912 55.4693 53.97 54.3993 54.0509C52.9609 54.1602 51.5174 54.2204 50.0752 54.2796C48.6788 54.3372 47.2819 54.3823 45.8845 54.4049C43.1429 54.4495 40.4013 54.5057 37.6598 54.4995C34.9737 54.4938 32.2871 54.4168 29.6011 54.3699C28.6561 54.3531 27.7102 54.358 26.7671 54.3088C24.9211 54.2128 23.0759 54.1018 21.2331 53.9655C20.3791 53.9023 19.5289 53.7788 18.7178 53.4886C17.3708 53.0072 16.2864 52.2392 15.6203 51.0026C15.0602 49.962 14.6898 48.8551 14.5429 47.7075C14.3489 46.1895 14.2612 44.6592 14.1395 43.1337C14.1124 42.7904 14.1357 42.4431 14.1357 42.098C14.1152 42.098 14.0947 42.0984 14.0742 42.0989C14.0494 42.2573 14.0247 42.4157 14 42.5745ZM33.0315 44.4181C33.1155 44.3893 33.1593 44.3791 33.1985 44.3597C35.1761 43.3859 37.1523 42.4099 39.1304 41.4375C41.357 40.3425 43.586 39.2506 45.8122 38.1551C45.8761 38.1237 45.9246 38.0653 45.9801 38.0193C45.9241 37.9746 45.8747 37.918 45.8113 37.8861C44.6238 37.2982 43.4353 36.712 42.2455 36.128C40.5996 35.3196 38.9494 34.5184 37.3067 33.7044C35.9947 33.054 34.6915 32.3886 33.3841 31.7316C33.2797 31.679 33.1687 31.6378 33.0315 31.579C33.0315 35.8762 33.0315 40.1297 33.0315 44.4181Z" fill="#FF0000"/>
<path d="M33.0315 44.4181C33.1155 44.3893 33.1593 44.3791 33.1985 44.3597C35.1761 43.3859 37.1523 42.4099 39.1304 41.4375C41.357 40.3425 43.586 39.2506 45.8122 38.1551C45.8761 38.1237 45.9246 38.0653 45.9801 38.0193C45.9241 37.9746 45.8747 37.918 45.8113 37.8861C44.6238 37.2982 43.4353 36.712 42.2455 36.128C40.5996 35.3196 38.9494 34.5184 37.3067 33.7044C35.9947 33.054 34.6915 32.3886 33.3841 31.7316C33.2797 31.679 33.1687 31.6378 33.0315 31.579V44.4181Z" fill="white"/>
</g>
<defs>
<filter id="filter0_b_253_414" x="-7" y="-6.5" width="90" height="90" filterUnits="userSpaceOnUse" color-interpolation-filters="sRGB">
<feFlood flood-opacity="0" result="BackgroundImageFix"/>
<feGaussianBlur in="BackgroundImageFix" stdDeviation="3.5"/>
<feComposite in2="SourceAlpha" operator="in" result="effect1_backgroundBlur_253_414"/>
<feBlend mode="normal" in="SourceGraphic" in2="effect1_backgroundBlur_253_414" result="shape"/>
</filter>
<linearGradient id="paint0_linear_253_414" x1="38" y1="0.5" x2="38" y2="76.5" gradientUnits="userSpaceOnUse">
<stop stop-color="white"/>
<stop offset="1" stop-color="#A0A0A0"/>
</linearGradient>
</defs>
</svg>
