<svg width="304" height="304" viewBox="0 0 304 304" fill="none" xmlns="http://www.w3.org/2000/svg">
<rect width="304" height="304" rx="152" fill="white"/>
<rect x="4" y="4" width="296" height="296" rx="148" stroke="#9FA5AC" stroke-opacity="0.6" stroke-width="8"/>
<g clip-path="url(#clip0_450_979)">
<path d="M244.173 105.483C243.087 101.399 240.948 97.6706 237.969 94.6725C234.99 91.6744 231.276 89.5113 227.198 88.3996C212.188 84.3633 152.188 84.3633 152.188 84.3633C152.188 84.3633 92.1875 84.3633 77.1766 88.3996C73.0989 89.5113 69.3848 91.6744 66.4058 94.6725C63.4268 97.6706 61.2875 101.399 60.202 105.483C56.1875 120.56 56.1875 152 56.1875 152C56.1875 152 56.1875 183.44 60.202 198.516C61.2875 202.601 63.4268 206.329 66.4058 209.327C69.3848 212.325 73.0989 214.488 77.1766 215.6C92.1875 219.636 152.188 219.636 152.188 219.636C152.188 219.636 212.188 219.636 227.198 215.6C231.276 214.488 234.99 212.325 237.969 209.327C240.948 206.329 243.087 202.601 244.173 198.516C248.188 183.44 248.188 152 248.188 152C248.188 152 248.188 120.56 244.173 105.483Z" fill="#FF0302"/>
<path d="M132.547 180.549V123.451L182.729 152L132.547 180.549Z" fill="#FEFEFE"/>
</g>
<defs>
<clipPath id="clip0_450_979">
<rect width="192" height="192" fill="white" transform="translate(56 56)"/>
</clipPath>
</defs>
</svg>
