<svg xmlns="http://www.w3.org/2000/svg" width="66" height="46" viewBox="0 0 66 46" fill="none">
  <path fill-rule="evenodd" clip-rule="evenodd" d="M0 28.8571C0 24.9585 0 21.0606 0 17.1626C0.0307833 17.3884 0.0622079 17.6142 0.0929912 17.84C0.187906 16.5095 0.22382 15.1765 0.337334 13.8492C0.475858 12.2172 0.618872 10.5815 0.870269 8.9642C1.13577 7.25913 1.70398 5.61894 2.69995 4.19307C4.12047 2.16047 6.18487 1.09075 8.63792 0.78802C10.0937 0.608673 11.5649 0.524087 13.0316 0.450313C15.5616 0.323753 18.0929 0.220088 20.6248 0.141862C23.0073 0.0680882 25.3917 -0.00186979 27.7749 3.81507e-05C33.144 0.00449002 38.5137 0.0095779 43.8816 0.101795C47.4973 0.164121 51.1124 0.352372 54.725 0.535535C55.9525 0.597861 57.1953 0.715518 58.3895 0.987718C60.8771 1.55565 62.7896 2.92873 63.9132 5.25325C64.9399 7.3787 65.3548 9.65042 65.5267 11.9724C65.6479 13.6075 65.7153 15.2464 65.8089 16.8834C65.8172 17.0189 65.848 17.1525 65.8679 17.2867C65.8775 17.2835 65.8865 17.2809 65.8955 17.2778C65.9301 16.9 65.9647 16.5228 66 16.1457C66 20.3616 66 24.5776 66 28.7935C65.9673 28.6294 65.9346 28.4659 65.9019 28.3019C65.798 29.5452 65.7659 30.7924 65.6665 32.0344C65.5459 33.5417 65.3946 35.0471 65.2086 36.548C64.9886 38.3237 64.3653 39.9823 63.4841 41.5322C62.6741 42.9568 61.328 43.8007 59.8748 44.4831C58.5094 45.1248 57.0203 45.2381 55.5491 45.3544C53.5713 45.5115 51.5864 45.598 49.6034 45.6832C47.6833 45.7659 45.7626 45.8308 43.8412 45.8632C40.0715 45.9275 36.3018 46.0082 32.5322 45.9993C28.8388 45.9911 25.1448 45.8804 21.4515 45.813C20.1521 45.7888 18.8516 45.7958 17.5548 45.7252C15.0165 45.5872 12.4794 45.4276 9.94557 45.2317C8.77131 45.1408 7.60219 44.9633 6.48694 44.5461C4.63481 43.8542 3.14374 42.7501 2.22794 40.9725C1.45772 39.4767 0.94851 37.8855 0.746495 36.2357C0.479706 34.0537 0.359138 31.8538 0.191754 29.661C0.154558 29.1674 0.186624 28.6682 0.186624 28.1721C0.158406 28.1721 0.130188 28.1728 0.10197 28.1734C0.0679798 28.4011 0.0339899 28.6288 0 28.8571ZM26.1684 31.5072C26.2838 31.4659 26.3441 31.4512 26.3979 31.4233C29.1171 30.0235 31.8344 28.6205 34.5542 27.2226C37.6159 25.6485 40.6808 24.0789 43.7418 22.5043C43.8296 22.4591 43.8963 22.3751 43.9726 22.309C43.8957 22.2448 43.8277 22.1634 43.7405 22.1176C42.1077 21.2724 40.4736 20.4297 38.8376 19.5902C36.5744 18.4282 34.3054 17.2765 32.0467 16.1063C30.2427 15.1714 28.4508 14.2149 26.6532 13.2704C26.5095 13.1948 26.3569 13.1356 26.1684 13.051C26.1684 19.2283 26.1684 25.3426 26.1684 31.5072Z" fill="#FF0000"/>
  <path d="M26.1684 31.5072C26.2838 31.4659 26.3441 31.4512 26.3979 31.4233C29.1171 30.0235 31.8344 28.6205 34.5542 27.2226C37.6159 25.6485 40.6808 24.0789 43.7418 22.5043C43.8296 22.4591 43.8963 22.3751 43.9726 22.309C43.8957 22.2448 43.8277 22.1634 43.7405 22.1176C42.1077 21.2724 40.4736 20.4297 38.8376 19.5902C36.5744 18.4282 34.3054 17.2765 32.0467 16.1063C30.2427 15.1714 28.4508 14.2149 26.6532 13.2704C26.5095 13.1948 26.3569 13.1356 26.1684 13.051V31.5072Z" fill="white"/>
</svg>