<svg width="56" height="56" viewBox="0 0 56 56" fill="none" xmlns="http://www.w3.org/2000/svg">
<g id="icon_youtube" clip-path="url(#clip0_915_1303)">
<path id="Subtract" fill-rule="evenodd" clip-rule="evenodd" d="M28 56C43.464 56 56 43.464 56 28C56 12.536 43.464 0 28 0C12.536 0 0 12.536 0 28C0 43.464 12.536 56 28 56ZM43.3066 18.6434C44.3293 19.5904 44.6613 21.747 44.6613 21.747C44.6613 21.747 45 24.2824 45 26.8117V29.1822C45 31.7176 44.6613 34.2469 44.6613 34.2469C44.6613 34.2469 44.3293 36.4035 43.3066 37.3505C42.1398 38.4735 40.849 38.5895 40.1192 38.6552C40.039 38.6624 39.9657 38.6689 39.9 38.6762C35.1453 38.9878 28 39 28 39C28 39 19.1613 38.9267 16.4387 38.6884C16.3062 38.6649 16.145 38.6468 15.962 38.6263C15.0993 38.5295 13.7551 38.3788 12.6867 37.3505C11.6707 36.4035 11.3387 34.2469 11.3387 34.2469C11.3387 34.2469 11 31.7115 11 29.1822V26.8117C11 24.2824 11.3453 21.747 11.3453 21.747C11.3453 21.747 11.6707 19.5904 12.6934 18.6434C13.8602 17.5204 15.151 17.4043 15.8809 17.3387C15.961 17.3315 16.0343 17.3249 16.1 17.3177C20.8547 17 27.9934 17 27.9934 17H28.0066C28.0066 17 35.1453 17 39.9 17.3177C39.9657 17.3249 40.039 17.3315 40.1192 17.3387C40.849 17.4043 42.1398 17.5204 43.3066 18.6434ZM24.4871 23.2683V32.0597L33.6711 27.6793L24.4871 23.2683Z" fill="white"/>
</g>
<defs>
<clipPath id="clip0_915_1303">
<rect width="56" height="56" fill="white"/>
</clipPath>
</defs>
</svg>
