<svg width="262" height="162" viewBox="0 0 262 162" fill="none" xmlns="http://www.w3.org/2000/svg">
<path d="M11 70C4.92487 70 1.06221e-06 74.9249 0 81C-1.06221e-06 87.0751 4.92487 92 11 92L11 70ZM258.778 88.7782C263.074 84.4825 263.074 77.5176 258.778 73.2219L188.775 3.21829C184.479 -1.07748 177.514 -1.07749 173.218 3.21828C168.923 7.51405 168.923 14.4789 173.218 18.7746L235.444 81L173.218 143.225C168.922 147.521 168.922 154.486 173.218 158.782C177.514 163.078 184.479 163.078 188.775 158.782L258.778 88.7782ZM11 92L251 92L251 70L11 70L11 92Z" fill="white"/>
</svg>
