<svg aria-hidden="true" xmlns="http://www.w3.org/2000/svg" xmlns:xlink="http://www.w3.org/1999/xlink">
<symbol viewBox="0 0 76 76" fill="none" id="discord" xmlns="http://www.w3.org/2000/svg">
<g filter="url(#bfilter0_b_445_779)">
<rect width="76" height="76" rx="38" fill="currentColor"/>
<rect x="1" y="1" width="74" height="74" rx="37" stroke="currentColor" stroke-width="2"/>
<g clip-path="url(#bclip0_445_779)">
<path d="M54.634 22.3111C51.5747 20.9074 48.294 19.8732 44.8638 19.2808C44.8013 19.2694 44.7389 19.2979 44.7067 19.3551C44.2848 20.1055 43.8175 21.0845 43.4902 21.854C39.8008 21.3017 36.1304 21.3017 32.5166 21.854C32.1893 21.0674 31.705 20.1055 31.2811 19.3551C31.249 19.2998 31.1866 19.2713 31.1241 19.2808C27.6958 19.8713 24.4151 20.9055 21.3539 22.3111C21.3274 22.3226 21.3047 22.3416 21.2896 22.3664C15.0668 31.6631 13.3621 40.7313 14.1984 49.6871C14.2021 49.7309 14.2267 49.7728 14.2608 49.7995C18.3664 52.8145 22.3434 54.645 26.2466 55.8582C26.309 55.8773 26.3752 55.8544 26.415 55.803C27.3383 54.5421 28.1613 53.2127 28.867 51.8146C28.9086 51.7327 28.8688 51.6356 28.7837 51.6032C27.4783 51.108 26.2352 50.5042 25.0395 49.8185C24.9449 49.7633 24.9373 49.628 25.0243 49.5632C25.2759 49.3747 25.5276 49.1785 25.7679 48.9804C25.8114 48.9443 25.872 48.9366 25.9231 48.9595C33.7786 52.546 42.2831 52.546 50.0459 48.9595C50.097 48.9347 50.1576 48.9424 50.203 48.9785C50.4433 49.1766 50.6949 49.3747 50.9484 49.5632C51.0354 49.628 51.0298 49.7633 50.9352 49.8185C49.7394 50.5175 48.4964 51.108 47.189 51.6013C47.1039 51.6337 47.0661 51.7327 47.1077 51.8146C47.8285 53.2107 48.6515 54.5402 49.5578 55.8011C49.5957 55.8544 49.6637 55.8773 49.7262 55.8582C53.6483 54.645 57.6252 52.8145 61.7309 49.7995C61.7668 49.7728 61.7895 49.7328 61.7933 49.689C62.7942 39.3351 60.117 30.3413 54.6964 22.3683C54.6832 22.3416 54.6605 22.3226 54.634 22.3111ZM30.04 44.234C27.675 44.234 25.7263 42.0627 25.7263 39.3961C25.7263 36.7295 27.6372 34.5582 30.04 34.5582C32.4617 34.5582 34.3916 36.7486 34.3538 39.3961C34.3538 42.0627 32.4428 44.234 30.04 44.234ZM45.9895 44.234C43.6245 44.234 41.6758 42.0627 41.6758 39.3961C41.6758 36.7295 43.5867 34.5582 45.9895 34.5582C48.4113 34.5582 50.3411 36.7486 50.3033 39.3961C50.3033 42.0627 48.4113 44.234 45.9895 44.234Z" fill="currentColor"/>
</g>
</g>
<defs>
<filter id="bfilter0_b_445_779" x="-7" y="-7" width="90" height="90" filterUnits="userSpaceOnUse" color-interpolation-filters="sRGB">
<feFlood flood-opacity="0" result="BackgroundImageFix"/>
<feGaussianBlur in="BackgroundImageFix" stdDeviation="3.5"/>
<feComposite in2="SourceAlpha" operator="in" result="effect1_backgroundBlur_445_779"/>
<feBlend mode="normal" in="SourceGraphic" in2="effect1_backgroundBlur_445_779" result="shape"/>
</filter>
<linearGradient id="bpaint0_linear_445_779" x1="38" y1="0" x2="38" y2="76" gradientUnits="userSpaceOnUse">
<stop stop-color="white"/>
<stop offset="1" stop-color="#A0A0A0"/>
</linearGradient>
<clipPath id="bclip0_445_779">
<rect width="48" height="48" fill="currentColor" transform="translate(14 14)"/>
</clipPath>
</defs>
</symbol><symbol viewBox="0 0 76 76" fill="none" id="discord-square" xmlns="http://www.w3.org/2000/svg">
<g filter="url(#afilter0_b_445_779)">
<rect width="76" height="76" rx="22" fill="currentColor"/>
<rect x="1" y="1" width="74" height="74" rx="21" stroke="currentColor" stroke-width="2"/>
<g clip-path="url(#aclip0_445_779)">
<path d="M54.634 22.3111C51.5747 20.9074 48.294 19.8732 44.8638 19.2808C44.8013 19.2694 44.7389 19.2979 44.7067 19.3551C44.2848 20.1055 43.8175 21.0845 43.4902 21.854C39.8008 21.3017 36.1304 21.3017 32.5166 21.854C32.1893 21.0674 31.705 20.1055 31.2811 19.3551C31.249 19.2998 31.1866 19.2713 31.1241 19.2808C27.6958 19.8713 24.4151 20.9055 21.3539 22.3111C21.3274 22.3226 21.3047 22.3416 21.2896 22.3664C15.0668 31.6631 13.3621 40.7313 14.1984 49.6871C14.2021 49.7309 14.2267 49.7728 14.2608 49.7995C18.3664 52.8145 22.3434 54.645 26.2466 55.8582C26.309 55.8773 26.3752 55.8544 26.415 55.803C27.3383 54.5421 28.1613 53.2127 28.867 51.8146C28.9086 51.7327 28.8688 51.6356 28.7837 51.6032C27.4783 51.108 26.2352 50.5042 25.0395 49.8185C24.9449 49.7633 24.9373 49.628 25.0243 49.5632C25.2759 49.3747 25.5276 49.1785 25.7679 48.9804C25.8114 48.9443 25.872 48.9366 25.9231 48.9595C33.7786 52.546 42.2831 52.546 50.0459 48.9595C50.097 48.9347 50.1576 48.9424 50.203 48.9785C50.4433 49.1766 50.6949 49.3747 50.9484 49.5632C51.0354 49.628 51.0298 49.7633 50.9352 49.8185C49.7394 50.5175 48.4964 51.108 47.189 51.6013C47.1039 51.6337 47.0661 51.7327 47.1077 51.8146C47.8285 53.2107 48.6515 54.5402 49.5578 55.8011C49.5957 55.8544 49.6637 55.8773 49.7262 55.8582C53.6483 54.645 57.6252 52.8145 61.7309 49.7995C61.7668 49.7728 61.7895 49.7328 61.7933 49.689C62.7942 39.3351 60.117 30.3413 54.6964 22.3683C54.6832 22.3416 54.6605 22.3226 54.634 22.3111ZM30.04 44.234C27.675 44.234 25.7263 42.0627 25.7263 39.3961C25.7263 36.7295 27.6372 34.5582 30.04 34.5582C32.4617 34.5582 34.3916 36.7486 34.3538 39.3961C34.3538 42.0627 32.4428 44.234 30.04 44.234ZM45.9895 44.234C43.6245 44.234 41.6758 42.0627 41.6758 39.3961C41.6758 36.7295 43.5867 34.5582 45.9895 34.5582C48.4113 34.5582 50.3411 36.7486 50.3033 39.3961C50.3033 42.0627 48.4113 44.234 45.9895 44.234Z" fill="currentColor"/>
</g>
</g>
<defs>
<filter id="afilter0_b_445_779" x="-7" y="-7" width="90" height="90" filterUnits="userSpaceOnUse" color-interpolation-filters="sRGB">
<feFlood flood-opacity="0" result="BackgroundImageFix"/>
<feGaussianBlur in="BackgroundImageFix" stdDeviation="3.5"/>
<feComposite in2="SourceAlpha" operator="in" result="effect1_backgroundBlur_445_779"/>
<feBlend mode="normal" in="SourceGraphic" in2="effect1_backgroundBlur_445_779" result="shape"/>
</filter>
<linearGradient id="apaint0_linear_445_779" x1="38" y1="0" x2="38" y2="76" gradientUnits="userSpaceOnUse">
<stop stop-color="white"/>
<stop offset="1" stop-color="#A0A0A0"/>
</linearGradient>
<clipPath id="aclip0_445_779">
<rect width="48" height="48" fill="currentColor" transform="translate(14 14)"/>
</clipPath>
</defs>
</symbol><symbol viewBox="0 0 76 76" fill="none" id="tg" xmlns="http://www.w3.org/2000/svg">
<g filter="url(#dfilter0_b_445_770)">
<rect width="76" height="76" rx="38" fill="currentColor"/>
<rect x="1" y="1" width="74" height="74" rx="37" stroke="currentColor" stroke-width="2"/>
<path fill-rule="evenodd" clip-rule="evenodd" d="M52.6568 40.1461C52.9031 38.4613 53.1493 36.7764 53.3914 35.0906C53.603 33.6199 53.808 32.1481 54.0131 30.6763C54.1498 29.6951 54.2865 28.7139 54.4251 27.733C54.5561 26.8053 54.6913 25.8783 54.8266 24.9511C54.8843 24.5555 54.9421 24.1598 54.9995 23.7641C55.0128 22.9776 54.7781 22.3224 54.2433 21.7848C53.3882 20.9257 52.4342 20.7944 51.3674 21.281C48.6815 22.5057 45.9939 23.7262 43.3062 24.9467L43.2974 24.9507C42.9 25.1311 42.5026 25.3116 42.1052 25.4921C40.913 26.0335 39.7209 26.575 38.5291 27.117C32.3524 29.926 26.1762 32.736 20.0015 35.5493C19.8364 35.6245 19.6708 35.6987 19.5052 35.7729C18.8568 36.0632 18.2078 36.3538 17.5913 36.7078C16.8002 37.1621 16.8107 38.2598 17.5761 38.7616C17.8398 38.9346 18.1412 39.0503 18.4362 39.1571C19.252 39.4511 20.0688 39.7413 20.8856 40.0316C20.9543 40.056 21.0238 40.0807 21.0924 40.1051C22.1222 40.471 23.1518 40.8375 24.1789 41.2119C26.0368 41.8891 27.787 41.7215 29.4383 40.5464C30.4723 39.8105 31.5095 39.0799 32.5467 38.3493C33.4112 37.7404 34.2756 37.1316 35.1381 36.5196C36.4058 35.6201 37.6727 34.7194 38.9395 33.8184C39.1205 33.6897 39.3015 33.561 39.4825 33.4323L39.4857 33.43C41.1184 32.2689 42.751 31.1078 44.3849 29.949C44.5598 29.8251 44.7558 29.6947 44.9551 29.6643C45.1098 29.6408 45.3334 29.7236 45.4324 29.8461C45.4922 29.9206 45.419 30.2014 45.3265 30.318C45.0421 30.6773 44.7273 31.011 44.4107 31.3388C43.1992 32.5915 41.9867 33.8431 40.7742 35.0946C38.5231 37.4183 36.272 39.7419 34.0272 42.0724C32.8771 43.2662 32.965 44.899 34.2301 45.9472C34.6316 46.2801 35.0604 46.5751 35.4894 46.8702C35.6717 46.9956 35.854 47.121 36.0342 47.2493C36.7793 47.7796 37.5242 48.3104 38.2691 48.8411C40.8644 50.6904 43.4598 52.5397 46.0652 54.3727C46.4591 54.6495 46.9299 54.8764 47.3911 54.9563C49.1675 55.2655 50.7272 53.9012 51.0001 51.8783C51.2887 49.7402 51.5786 47.6016 51.8842 45.4665C52.1068 43.9143 52.333 42.3628 52.5596 40.8114C52.592 40.5897 52.6245 40.3678 52.6568 40.1461Z" fill="currentColor"/>
</g>
<defs>
<filter id="dfilter0_b_445_770" x="-7" y="-7" width="90" height="90" filterUnits="userSpaceOnUse" color-interpolation-filters="sRGB">
<feFlood flood-opacity="0" result="BackgroundImageFix"/>
<feGaussianBlur in="BackgroundImageFix" stdDeviation="3.5"/>
<feComposite in2="SourceAlpha" operator="in" result="effect1_backgroundBlur_445_770"/>
<feBlend mode="normal" in="SourceGraphic" in2="effect1_backgroundBlur_445_770" result="shape"/>
</filter>
<linearGradient id="dpaint0_linear_445_770" x1="38" y1="0" x2="38" y2="76" gradientUnits="userSpaceOnUse">
<stop stop-color="white"/>
<stop offset="1" stop-color="#A0A0A0"/>
</linearGradient>
</defs>
</symbol><symbol viewBox="0 0 76 76" fill="none" id="tg-square" xmlns="http://www.w3.org/2000/svg">
<g filter="url(#cfilter0_b_445_769)">
<rect width="76" height="76" rx="22" fill="currentColor"/>
<rect x="1" y="1" width="74" height="74" rx="21" stroke="currentColor" stroke-width="2"/>
<path fill-rule="evenodd" clip-rule="evenodd" d="M52.6568 40.1461C52.9031 38.4613 53.1493 36.7764 53.3914 35.0906C53.603 33.6199 53.808 32.1481 54.0131 30.6763C54.1498 29.6951 54.2865 28.7139 54.4251 27.733C54.5561 26.8053 54.6913 25.8783 54.8266 24.9511C54.8843 24.5555 54.9421 24.1598 54.9995 23.7641C55.0128 22.9776 54.7781 22.3224 54.2433 21.7848C53.3882 20.9257 52.4342 20.7944 51.3674 21.281C48.6815 22.5057 45.9939 23.7262 43.3062 24.9467L43.2974 24.9507C42.9 25.1311 42.5026 25.3116 42.1052 25.4921C40.913 26.0335 39.7209 26.575 38.5291 27.117C32.3524 29.926 26.1762 32.736 20.0015 35.5493C19.8364 35.6245 19.6708 35.6987 19.5052 35.7729C18.8568 36.0632 18.2078 36.3538 17.5913 36.7078C16.8002 37.1621 16.8107 38.2598 17.5761 38.7616C17.8398 38.9346 18.1412 39.0503 18.4362 39.1571C19.252 39.4511 20.0688 39.7413 20.8856 40.0316C20.9543 40.056 21.0238 40.0807 21.0924 40.1051C22.1222 40.471 23.1518 40.8375 24.1789 41.2119C26.0368 41.8891 27.787 41.7215 29.4383 40.5464C30.4723 39.8105 31.5095 39.0799 32.5467 38.3493C33.4112 37.7404 34.2756 37.1316 35.1381 36.5196C36.4058 35.6201 37.6727 34.7194 38.9395 33.8184C39.1205 33.6897 39.3015 33.561 39.4825 33.4323L39.4857 33.43C41.1184 32.2689 42.751 31.1078 44.3849 29.949C44.5598 29.8251 44.7558 29.6947 44.9551 29.6643C45.1098 29.6408 45.3334 29.7236 45.4324 29.8461C45.4922 29.9206 45.419 30.2014 45.3265 30.318C45.0421 30.6773 44.7273 31.011 44.4107 31.3388C43.1992 32.5915 41.9867 33.8431 40.7742 35.0946C38.5231 37.4183 36.272 39.7419 34.0272 42.0724C32.8771 43.2662 32.965 44.899 34.2301 45.9472C34.6316 46.2801 35.0604 46.5751 35.4894 46.8702C35.6717 46.9956 35.854 47.121 36.0342 47.2493C36.7793 47.7796 37.5242 48.3104 38.2691 48.8411C40.8644 50.6904 43.4598 52.5397 46.0652 54.3727C46.4591 54.6495 46.9299 54.8764 47.3911 54.9563C49.1675 55.2655 50.7272 53.9012 51.0001 51.8783C51.2887 49.7402 51.5786 47.6016 51.8842 45.4665C52.1068 43.9143 52.333 42.3628 52.5596 40.8114C52.592 40.5897 52.6245 40.3678 52.6568 40.1461Z" fill="currentColor"/>
</g>
<defs>
<filter id="cfilter0_b_445_769" x="-7" y="-7" width="90" height="90" filterUnits="userSpaceOnUse" color-interpolation-filters="sRGB">
<feFlood flood-opacity="0" result="BackgroundImageFix"/>
<feGaussianBlur in="BackgroundImageFix" stdDeviation="3.5"/>
<feComposite in2="SourceAlpha" operator="in" result="effect1_backgroundBlur_445_769"/>
<feBlend mode="normal" in="SourceGraphic" in2="effect1_backgroundBlur_445_769" result="shape"/>
</filter>
<linearGradient id="cpaint0_linear_445_769" x1="38" y1="0" x2="38" y2="76" gradientUnits="userSpaceOnUse">
<stop stop-color="white"/>
<stop offset="1" stop-color="#A0A0A0"/>
</linearGradient>
</defs>
</symbol><symbol viewBox="0 0 76 76" fill="none" id="tiktok" xmlns="http://www.w3.org/2000/svg">
<g filter="url(#ffilter0_b_445_768)">
<rect width="76" height="76" rx="38" fill="currentColor"/>
<rect x="1" y="1" width="74" height="74" rx="37" stroke="currentColor" stroke-width="2"/>
<path d="M48.3524 31.3269C51.4391 33.5413 55.2205 34.8442 59.3045 34.8442V26.9572C58.5316 26.9574 57.7607 26.8765 57.0045 26.7157V32.9239C52.9208 32.9239 49.1399 31.621 46.0524 29.4068V45.5017C46.0524 53.5533 39.5486 60.0798 31.5262 60.0798C28.5328 60.0798 25.7506 59.1716 23.4395 57.6141C26.0773 60.3208 29.7559 62 33.8257 62C41.8486 62 48.3528 55.4734 48.3528 47.4215V31.3269H48.3524V31.3269ZM51.1898 23.37C49.6123 21.6405 48.5765 19.4053 48.3524 16.9343V15.9199H46.1728C46.7215 19.0606 48.5928 21.7437 51.1898 23.37ZM28.5136 51.4356C27.6323 50.2759 27.156 48.8572 27.1581 47.3985C27.1581 43.716 30.1329 40.7302 33.8031 40.7302C34.487 40.7301 35.1669 40.8352 35.8188 41.0427V32.9795C35.057 32.8748 34.2882 32.8303 33.5197 32.8466V39.1226C32.8674 38.915 32.1872 38.8096 31.503 38.8103C27.8329 38.8103 24.8583 41.7957 24.8583 45.4787C24.8583 48.0828 26.3452 50.3373 28.5136 51.4356Z" fill="currentColor"/>
<path d="M46.0539 29.4066C49.1414 31.6208 52.9223 32.9237 57.006 32.9237V26.7156C54.7265 26.2283 52.7085 25.0328 51.1912 23.37C48.5941 21.7436 46.723 19.0604 46.1743 15.9199H40.4491V47.4212C40.4362 51.0936 37.4665 54.0672 33.8042 54.0672C31.6461 54.0672 29.7289 53.0348 28.5146 51.4356C26.3464 50.3373 24.8594 48.0826 24.8594 45.4789C24.8594 41.7962 27.8341 38.8104 31.5042 38.8104C32.2074 38.8104 32.8851 38.9203 33.5209 39.1228V32.8468C25.6394 33.0102 19.3008 39.473 19.3008 47.4214C19.3008 51.3892 20.8792 54.9861 23.4411 57.6143C25.7523 59.1716 28.5345 60.08 31.5278 60.08C39.5504 60.08 46.0541 53.5531 46.0541 45.5017V29.4066H46.0539Z" fill="currentColor"/>
<path d="M57.0051 26.7156V25.037C54.9495 25.0401 52.9343 24.4624 51.1903 23.3699C52.7342 25.0661 54.7671 26.2357 57.0051 26.7156ZM46.1734 15.92C46.1211 15.6198 46.0809 15.3177 46.053 15.0144V14H38.148V45.5016C38.1354 49.1735 35.1658 52.1471 31.5033 52.1471C30.428 52.1471 29.4128 51.891 28.5137 51.4358C29.7279 53.0349 31.6452 54.0671 33.8033 54.0671C37.4652 54.0671 40.4354 51.0938 40.4482 47.4214V15.92H46.1734ZM33.5203 32.8468V31.0598C32.8598 30.9692 32.1938 30.9237 31.5271 30.924C23.5038 30.9239 17 37.4508 17 45.5016C17 50.5491 19.5561 54.9974 23.4403 57.614C20.8785 54.986 19.3 51.3889 19.3 47.4213C19.3 39.473 25.6385 33.0102 33.5203 32.8468Z" fill="currentColor"/>
</g>
<defs>
<filter id="ffilter0_b_445_768" x="-7" y="-7" width="90" height="90" filterUnits="userSpaceOnUse" color-interpolation-filters="sRGB">
<feFlood flood-opacity="0" result="BackgroundImageFix"/>
<feGaussianBlur in="BackgroundImageFix" stdDeviation="3.5"/>
<feComposite in2="SourceAlpha" operator="in" result="effect1_backgroundBlur_445_768"/>
<feBlend mode="normal" in="SourceGraphic" in2="effect1_backgroundBlur_445_768" result="shape"/>
</filter>
<linearGradient id="fpaint0_linear_445_768" x1="38" y1="0" x2="38" y2="76" gradientUnits="userSpaceOnUse">
<stop stop-color="white"/>
<stop offset="1" stop-color="#A0A0A0"/>
</linearGradient>
</defs>
</symbol><symbol viewBox="0 0 76 76" fill="none" id="tiktok-square" xmlns="http://www.w3.org/2000/svg">
<g filter="url(#efilter0_b_445_788)">
<rect width="76" height="76" rx="22" fill="currentColor"/>
<rect x="1" y="1" width="74" height="74" rx="21" stroke="currentColor" stroke-width="2"/>
<path d="M48.3524 31.3269C51.4391 33.5413 55.2205 34.8442 59.3045 34.8442V26.9572C58.5316 26.9574 57.7607 26.8765 57.0045 26.7157V32.9239C52.9208 32.9239 49.1399 31.621 46.0524 29.4068V45.5017C46.0524 53.5533 39.5486 60.0798 31.5262 60.0798C28.5328 60.0798 25.7506 59.1716 23.4395 57.6141C26.0773 60.3208 29.7559 62 33.8257 62C41.8486 62 48.3528 55.4734 48.3528 47.4215V31.3269H48.3524V31.3269ZM51.1898 23.37C49.6123 21.6405 48.5765 19.4053 48.3524 16.9343V15.9199H46.1728C46.7215 19.0606 48.5928 21.7437 51.1898 23.37ZM28.5136 51.4356C27.6323 50.2759 27.156 48.8572 27.1581 47.3985C27.1581 43.716 30.1329 40.7302 33.8031 40.7302C34.487 40.7301 35.1669 40.8352 35.8188 41.0427V32.9795C35.057 32.8748 34.2882 32.8303 33.5197 32.8466V39.1226C32.8674 38.915 32.1872 38.8096 31.503 38.8103C27.8329 38.8103 24.8583 41.7957 24.8583 45.4787C24.8583 48.0828 26.3452 50.3373 28.5136 51.4356Z" fill="currentColor"/>
<path d="M46.0539 29.4066C49.1414 31.6208 52.9223 32.9237 57.006 32.9237V26.7156C54.7265 26.2283 52.7085 25.0328 51.1912 23.37C48.5941 21.7436 46.723 19.0604 46.1743 15.9199H40.4491V47.4212C40.4362 51.0936 37.4665 54.0672 33.8042 54.0672C31.6461 54.0672 29.7289 53.0348 28.5146 51.4356C26.3464 50.3373 24.8594 48.0826 24.8594 45.4789C24.8594 41.7962 27.8341 38.8104 31.5042 38.8104C32.2074 38.8104 32.8851 38.9203 33.5209 39.1228V32.8468C25.6394 33.0102 19.3008 39.473 19.3008 47.4214C19.3008 51.3892 20.8792 54.9861 23.4411 57.6143C25.7523 59.1716 28.5345 60.08 31.5278 60.08C39.5504 60.08 46.0541 53.5531 46.0541 45.5017V29.4066H46.0539Z" fill="currentColor"/>
<path d="M57.0051 26.7156V25.037C54.9495 25.0401 52.9343 24.4624 51.1903 23.3699C52.7342 25.0661 54.7671 26.2357 57.0051 26.7156ZM46.1734 15.92C46.1211 15.6198 46.0809 15.3177 46.053 15.0144V14H38.148V45.5016C38.1354 49.1735 35.1658 52.1471 31.5033 52.1471C30.428 52.1471 29.4128 51.891 28.5137 51.4358C29.7279 53.0349 31.6452 54.0671 33.8033 54.0671C37.4652 54.0671 40.4354 51.0938 40.4482 47.4214V15.92H46.1734ZM33.5203 32.8468V31.0598C32.8598 30.9692 32.1938 30.9237 31.5271 30.924C23.5038 30.9239 17 37.4508 17 45.5016C17 50.5491 19.5561 54.9974 23.4403 57.614C20.8785 54.986 19.3 51.3889 19.3 47.4213C19.3 39.473 25.6385 33.0102 33.5203 32.8468Z" fill="currentColor"/>
</g>
<defs>
<filter id="efilter0_b_445_788" x="-7" y="-7" width="90" height="90" filterUnits="userSpaceOnUse" color-interpolation-filters="sRGB">
<feFlood flood-opacity="0" result="BackgroundImageFix"/>
<feGaussianBlur in="BackgroundImageFix" stdDeviation="3.5"/>
<feComposite in2="SourceAlpha" operator="in" result="effect1_backgroundBlur_445_788"/>
<feBlend mode="normal" in="SourceGraphic" in2="effect1_backgroundBlur_445_788" result="shape"/>
</filter>
<linearGradient id="epaint0_linear_445_788" x1="38" y1="0" x2="38" y2="76" gradientUnits="userSpaceOnUse">
<stop stop-color="white"/>
<stop offset="1" stop-color="#A0A0A0"/>
</linearGradient>
</defs>
</symbol><symbol viewBox="0 0 76 76" fill="none" id="x" xmlns="http://www.w3.org/2000/svg">
<g filter="url(#hfilter0_b_445_774)">
<rect width="76" height="76" rx="38" fill="currentColor" fill-opacity="0.9"/>
<rect x="1" y="1" width="74" height="74" rx="37" stroke="currentColor" stroke-width="2"/>
<path d="M47.777 22H52.9905L41.6005 35.5549L55 54H44.5083L36.2908 42.8131L26.8881 54H21.6714L33.8542 39.5015L21 22H31.7581L39.186 32.2252L47.777 22ZM45.9472 50.7508H48.8361L30.1883 25.0786H27.0883L45.9472 50.7508Z" fill="currentColor"/>
</g>
<defs>
<filter id="hfilter0_b_445_774" x="-7" y="-7" width="90" height="90" filterUnits="userSpaceOnUse" color-interpolation-filters="sRGB">
<feFlood flood-opacity="0" result="BackgroundImageFix"/>
<feGaussianBlur in="BackgroundImageFix" stdDeviation="3.5"/>
<feComposite in2="SourceAlpha" operator="in" result="effect1_backgroundBlur_445_774"/>
<feBlend mode="normal" in="SourceGraphic" in2="effect1_backgroundBlur_445_774" result="shape"/>
</filter>
<linearGradient id="hpaint0_linear_445_774" x1="38" y1="0" x2="38" y2="76" gradientUnits="userSpaceOnUse">
<stop stop-color="white"/>
<stop offset="1" stop-color="#A0A0A0"/>
</linearGradient>
</defs>
</symbol><symbol viewBox="0 0 76 76" fill="none" id="x-square" xmlns="http://www.w3.org/2000/svg">
<g filter="url(#gfilter0_b_445_774)">
<rect width="76" height="76" rx="22" fill="currentColor" fill-opacity="0.9"/>
<rect x="1" y="1" width="74" height="74" rx="21" stroke="currentColor" stroke-width="2"/>
<path d="M47.777 22H52.9905L41.6005 35.5549L55 54H44.5083L36.2908 42.8131L26.8881 54H21.6714L33.8542 39.5015L21 22H31.7581L39.186 32.2252L47.777 22ZM45.9472 50.7508H48.8361L30.1883 25.0786H27.0883L45.9472 50.7508Z" fill="currentColor"/>
</g>
<defs>
<filter id="gfilter0_b_445_774" x="-7" y="-7" width="90" height="90" filterUnits="userSpaceOnUse" color-interpolation-filters="sRGB">
<feFlood flood-opacity="0" result="BackgroundImageFix"/>
<feGaussianBlur in="BackgroundImageFix" stdDeviation="3.5"/>
<feComposite in2="SourceAlpha" operator="in" result="effect1_backgroundBlur_445_774"/>
<feBlend mode="normal" in="SourceGraphic" in2="effect1_backgroundBlur_445_774" result="shape"/>
</filter>
<linearGradient id="gpaint0_linear_445_774" x1="38" y1="0" x2="38" y2="76" gradientUnits="userSpaceOnUse">
<stop stop-color="white"/>
<stop offset="1" stop-color="#A0A0A0"/>
</linearGradient>
</defs>
</symbol><symbol viewBox="0 0 76 76" fill="none" id="youtube" xmlns="http://www.w3.org/2000/svg">
<rect x="1" y="1" width="74" height="74" rx="37" fill="currentColor"/>
<rect x="1" y="1" width="74" height="74" rx="37" stroke="currentColor" stroke-width="2"/>
<g clip-path="url(#jclip0_445_785)">
<path d="M61.0432 26.3708C60.7719 25.3496 60.237 24.4177 59.4923 23.6681C58.7476 22.9186 57.819 22.3778 56.7996 22.0999C53.0469 21.0908 38.0469 21.0908 38.0469 21.0908C38.0469 21.0908 23.0469 21.0908 19.2941 22.0999C18.2747 22.3778 17.3462 22.9186 16.6015 23.6681C15.8567 24.4177 15.3219 25.3496 15.0505 26.3708C14.0469 30.1399 14.0469 37.9999 14.0469 37.9999C14.0469 37.9999 14.0469 45.8599 15.0505 49.629C15.3219 50.6502 15.8567 51.5822 16.6015 52.3317C17.3462 53.0812 18.2747 53.622 19.2941 53.8999C23.0469 54.909 38.0469 54.909 38.0469 54.909C38.0469 54.909 53.0469 54.909 56.7996 53.8999C57.819 53.622 58.7476 53.0812 59.4923 52.3317C60.237 51.5822 60.7719 50.6502 61.0432 49.629C62.0469 45.8599 62.0469 37.9999 62.0469 37.9999C62.0469 37.9999 62.0469 30.1399 61.0432 26.3708Z" fill="currentColor"/>
<path d="M33.1387 45.1378V30.8633L45.6841 38.0006L33.1387 45.1378Z" fill="currentColor"/>
</g>
<defs>
<linearGradient id="jpaint0_linear_445_785" x1="38" y1="0" x2="38" y2="76" gradientUnits="userSpaceOnUse">
<stop stop-color="white"/>
<stop offset="1" stop-color="#A0A0A0"/>
</linearGradient>
<clipPath id="jclip0_445_785">
<rect width="48" height="48" fill="currentColor" transform="translate(14 14)"/>
</clipPath>
</defs>
</symbol><symbol viewBox="0 0 76 76" fill="none" id="youtube-square" xmlns="http://www.w3.org/2000/svg">
<rect x="1" y="1" width="74" height="74" rx="21" fill="currentColor"/>
<rect x="1" y="1" width="74" height="74" rx="21" stroke="currentColor" stroke-width="2"/>
<g clip-path="url(#iclip0_445_784)">
<path d="M61.0432 26.3708C60.7719 25.3496 60.237 24.4177 59.4923 23.6681C58.7476 22.9186 57.819 22.3778 56.7996 22.0999C53.0469 21.0908 38.0469 21.0908 38.0469 21.0908C38.0469 21.0908 23.0469 21.0908 19.2941 22.0999C18.2747 22.3778 17.3462 22.9186 16.6015 23.6681C15.8567 24.4177 15.3219 25.3496 15.0505 26.3708C14.0469 30.1399 14.0469 37.9999 14.0469 37.9999C14.0469 37.9999 14.0469 45.8599 15.0505 49.629C15.3219 50.6502 15.8567 51.5822 16.6015 52.3317C17.3462 53.0812 18.2747 53.622 19.2941 53.8999C23.0469 54.909 38.0469 54.909 38.0469 54.909C38.0469 54.909 53.0469 54.909 56.7996 53.8999C57.819 53.622 58.7476 53.0812 59.4923 52.3317C60.237 51.5822 60.7719 50.6502 61.0432 49.629C62.0469 45.8599 62.0469 37.9999 62.0469 37.9999C62.0469 37.9999 62.0469 30.1399 61.0432 26.3708Z" fill="currentColor"/>
<path d="M33.1387 45.1378V30.8633L45.6841 38.0006L33.1387 45.1378Z" fill="currentColor"/>
</g>
<defs>
<linearGradient id="ipaint0_linear_445_784" x1="38" y1="0" x2="38" y2="76" gradientUnits="userSpaceOnUse">
<stop stop-color="white"/>
<stop offset="1" stop-color="#A0A0A0"/>
</linearGradient>
<clipPath id="iclip0_445_784">
<rect width="48" height="48" fill="currentColor" transform="translate(14 14)"/>
</clipPath>
</defs>
</symbol></svg>