<svg width="26" height="25" viewBox="0 0 26 25" fill="none" xmlns="http://www.w3.org/2000/svg">
<g clip-path="url(#clip0_222_2719)">
<path fill-rule="evenodd" clip-rule="evenodd" d="M24.1514 14.4679C23.5596 14.5156 22.9601 14.4765 22.364 14.4765C22.364 14.4758 22.364 14.4752 22.364 14.4745C21.7772 14.4745 21.1868 14.5139 20.6044 14.4659C19.5475 14.3787 18.7733 13.5114 18.7787 12.4869C18.784 11.479 19.56 10.5955 20.6088 10.5433C21.7887 10.4847 22.9765 10.4835 24.1561 10.5425C25.2184 10.5955 26.0009 11.488 26 12.5046C25.9991 13.5205 25.2136 14.3824 24.1514 14.4679ZM22.2346 18.6034C22.8426 19.2302 22.9699 19.9785 22.6104 20.7621C22.2539 21.5386 21.5906 21.9084 20.8665 21.9378C20.1658 21.9337 19.6861 21.7524 19.2984 21.3843C18.5608 20.6841 17.824 19.9824 17.1097 19.2602C16.3218 18.4638 16.3616 17.2256 17.1714 16.473C17.9869 15.7152 19.2595 15.717 20.0726 16.4914C20.8025 17.1866 21.5342 17.8811 22.2346 18.6034ZM13.9241 6.73526C13.2112 7.07967 12.4971 7.02923 11.836 6.60177C11.2204 6.20363 10.9338 5.62156 10.9262 4.91291C10.9211 4.43674 10.9251 3.96043 10.9256 3.48426C10.9259 2.99042 10.9127 2.49614 10.9287 2.00273C10.9625 0.955848 11.6899 0.167596 12.7404 0.0191704C13.6837 -0.114168 14.6473 0.460425 14.9532 1.35788C15.0261 1.57211 15.066 1.80617 15.0689 2.03161C15.0811 3.00162 15.086 3.97192 15.0702 4.94165C15.0571 5.74843 14.6808 6.36972 13.9241 6.73526ZM12.7578 18.0692C13.802 17.9574 14.7531 18.5895 15.0049 19.5763C15.0545 19.7707 15.0677 19.977 15.0719 20.1785C15.0813 20.6368 15.0748 21.0953 15.0744 21.5538C15.0741 22.0299 15.0844 22.5063 15.0719 22.9821C15.0485 23.8697 14.5411 24.5762 13.7336 24.8693C12.9337 25.1599 12.0516 24.9573 11.4693 24.3471C11.0986 23.9584 10.929 23.4929 10.9266 22.9716C10.9221 22.0106 10.9139 21.0494 10.9283 20.0885C10.9442 19.019 11.7153 18.1808 12.7578 18.0692ZM6.6575 21.3954C5.83984 22.1383 4.57943 22.0872 3.80137 21.331C3.02017 20.5718 2.9846 19.374 3.76177 18.5843C4.50517 17.8288 5.28218 17.1036 6.05516 16.3757C6.44606 16.0075 6.93633 15.851 7.52896 15.8408C8.32899 15.8872 8.97944 16.2436 9.33089 17.0016C9.67965 17.7535 9.58835 18.4925 9.0144 19.0991C8.26219 19.894 7.47023 20.6571 6.6575 21.3954ZM5.9159 8.50487C5.23048 7.85513 4.54999 7.20051 3.87429 6.54128C3.26014 5.94198 3.09622 5.09496 3.43482 4.34349C3.76162 3.61817 4.52892 3.1364 5.34883 3.14143C5.90215 3.16039 6.38898 3.33899 6.78496 3.71602C7.47546 4.37352 8.16596 5.03102 8.84615 5.69814C9.66486 6.50105 9.65544 7.75283 8.83674 8.52441C8.02191 9.29226 6.74148 9.28723 5.9159 8.50487ZM3.60323 10.5091C4.11681 10.5091 4.63083 10.4966 5.14396 10.5117C6.20056 10.5429 6.98669 11.18 7.18617 12.1476C7.36758 13.0282 6.87029 13.9448 5.99539 14.3127C5.80562 14.3926 5.59329 14.4649 5.39037 14.4675C4.20825 14.4826 3.0242 14.5106 1.84373 14.4647C0.982588 14.4314 0.269077 13.7899 0.063765 12.9996C-0.149168 12.1805 0.181662 11.3372 0.899656 10.8617C1.28368 10.6074 1.71268 10.508 2.17247 10.508C2.64944 10.508 3.12626 10.508 3.60323 10.508C3.60323 10.5083 3.60323 10.5087 3.60323 10.5091Z" fill="url(#paint0_angular_222_2719)"/>
</g>
<defs>
<radialGradient id="paint0_angular_222_2719" cx="0" cy="0" r="1" gradientUnits="userSpaceOnUse" gradientTransform="translate(13 12.5) rotate(90) scale(12.5 13.0009)">
<stop offset="0.0774608" stop-color="white"/>
<stop offset="0.540758" stop-color="white"/>
<stop offset="0.568321" stop-color="white" stop-opacity="0"/>
<stop offset="0.825384" stop-color="white" stop-opacity="0"/>
</radialGradient>
<clipPath id="clip0_222_2719">
<rect width="26" height="25" fill="white"/>
</clipPath>
</defs>
</svg>
