<svg width="42" height="43" viewBox="0 0 42 43" fill="none" xmlns="http://www.w3.org/2000/svg">
<g id="arrow-circle-right">
<g id="vuesax/bulk/arrow-circle-right">
<g id="arrow-circle-right_2">
<path id="Vector" d="M21 38.9507C30.665 38.9507 38.5 31.1157 38.5 21.4507C38.5 11.7857 30.665 3.95068 21 3.95068C11.335 3.95068 3.5 11.7857 3.5 21.4507C3.5 31.1157 11.335 38.9507 21 38.9507Z" fill="#272727" fill-opacity="0.5"/>
<path id="Vector_2" d="M18.8271 28.9648C18.4868 28.9648 18.1465 28.8421 17.8778 28.5792C17.3584 28.0709 17.3584 27.2295 17.8778 26.7212L23.251 21.4627L17.8778 16.2041C17.3584 15.6958 17.3584 14.8544 17.8778 14.3461C18.3972 13.8378 19.2569 13.8378 19.7763 14.3461L26.0987 20.5336C26.6181 21.042 26.6181 21.8833 26.0987 22.3917L19.7763 28.5792C19.5077 28.8421 19.1674 28.9648 18.8271 28.9648Z" fill="white"/>
</g>
</g>
</g>
</svg>
